<?xml version="1.0" standalone="no"?>
<!DOCTYPE svg PUBLIC "-//W3C//DTD SVG 20010904//EN"
 "http://www.w3.org/TR/2001/REC-SVG-20010904/DTD/svg10.dtd">
<svg version="1.0" xmlns="http://www.w3.org/2000/svg"
 width="1412.000000pt" height="1412.000000pt" viewBox="0 0 1412.000000 1412.000000"
 preserveAspectRatio="xMidYMid meet">
<metadata>
Created by potrace 1.11, written by Peter Selinger 2001-2013
</metadata>
<g transform="translate(0.000000,1412.000000) scale(0.100000,-0.100000)"
fill="#000000" stroke="none">
<path d="M6735 13414 c-1112 -54 -2225 -417 -3160 -1031 -616 -405 -1163 -919
-1605 -1508 -1013 -1349 -1444 -3042 -1204 -4725 256 -1801 1279 -3407 2809
-4413 1417 -931 3154 -1253 4825 -893 1002 216 1937 674 2745 1345 178 148
587 554 741 735 496 584 871 1219 1132 1921 210 562 338 1147 383 1755 7 101
10 297 6 570 -6 420 -13 518 -57 815 -318 2152 -1710 3990 -3698 4882 -618
277 -1265 449 -1972 523 -191 20 -737 34 -945 24z m675 -104 c1057 -51 2121
-396 3040 -986 382 -244 694 -498 1035 -839 334 -333 598 -658 839 -1035 853
-1328 1172 -2903 906 -4460 -424 -2473 -2306 -4461 -4760 -5028 -795 -184
-1644 -209 -2457 -72 -1573 265 -2983 1122 -3950 2400 -819 1084 -1263 2410
-1263 3768 1 1851 809 3588 2227 4789 770 651 1692 1107 2683 1327 558 123
1084 165 1700 136z"/>
<path d="M6845 13014 c-406 -26 -664 -56 -905 -106 -80 -16 -165 -34 -190 -38
-155 -28 -526 -138 -745 -221 -55 -21 -125 -47 -155 -58 -165 -59 -778 -359
-800 -391 -3 -4 -32 -22 -65 -40 -71 -40 -365 -234 -443 -293 -30 -23 -67 -51
-81 -62 -111 -83 -321 -256 -391 -322 -284 -265 -553 -556 -723 -783 -39 -52
-74 -97 -78 -100 -16 -12 -266 -388 -309 -465 -18 -33 -36 -62 -40 -65 -19
-13 -297 -559 -315 -620 -4 -14 -23 -57 -42 -97 -19 -39 -35 -80 -37 -90 -2
-10 -23 -64 -45 -120 -23 -55 -44 -112 -46 -125 -3 -12 -25 -81 -50 -152 -25
-71 -43 -131 -41 -134 3 -2 0 -16 -5 -30 -16 -42 -86 -305 -87 -327 -1 -11
-12 -69 -25 -130 -48 -215 -81 -464 -107 -805 -12 -162 -12 -601 0 -755 28
-352 57 -572 101 -775 16 -74 31 -148 33 -165 4 -33 61 -255 76 -295 5 -14 12
-39 15 -57 3 -18 23 -84 46 -148 22 -63 42 -126 44 -138 3 -12 23 -67 45 -122
23 -55 43 -108 45 -117 2 -10 23 -59 46 -110 23 -51 42 -97 43 -103 4 -24 171
-361 227 -457 21 -36 39 -69 39 -73 0 -3 20 -37 45 -75 25 -38 45 -71 45 -74
0 -14 287 -442 317 -474 10 -10 61 -74 112 -141 320 -416 793 -861 1254 -1178
177 -121 326 -215 492 -310 106 -60 511 -263 526 -263 5 0 42 -15 82 -33 40
-19 86 -38 102 -44 17 -6 84 -31 150 -56 228 -85 632 -203 776 -227 35 -5 128
-23 205 -39 78 -16 184 -34 235 -40 647 -76 1060 -76 1669 -1 240 30 664 127
945 215 77 24 151 47 165 51 14 3 39 12 55 20 17 7 80 31 140 54 125 46 210
82 343 146 51 24 96 44 101 44 5 0 69 32 142 71 74 39 168 89 209 111 41 22
82 46 90 53 8 7 33 22 55 33 54 27 436 283 488 327 23 19 92 74 152 122 337
264 710 640 960 968 33 43 74 94 91 114 37 42 303 436 314 466 4 11 20 38 36
60 15 22 47 78 72 125 24 47 48 90 52 95 31 39 241 491 281 605 11 30 24 64
29 75 17 37 72 180 75 197 2 9 22 70 44 135 22 65 43 134 46 153 3 19 10 46
15 60 21 59 69 242 75 287 2 19 18 96 34 171 35 163 45 227 71 472 52 476 53
878 4 1280 -8 69 -19 168 -24 221 -9 89 -44 283 -75 409 -7 30 -13 62 -13 70
1 16 -57 240 -72 280 -5 14 -12 40 -15 58 -6 38 -119 377 -147 442 -11 25 -30
74 -43 110 -32 91 -74 185 -181 405 -84 172 -120 239 -248 462 -54 92 -263
404 -323 479 -26 34 -77 99 -113 145 -130 170 -219 269 -435 487 -309 313
-584 539 -941 776 -181 121 -209 138 -373 230 -108 60 -488 251 -521 261 -14
4 -53 21 -88 37 -35 16 -87 38 -115 48 -29 10 -88 32 -132 50 -44 17 -96 36
-115 41 -19 4 -79 24 -133 44 -54 19 -126 41 -160 49 -34 8 -123 30 -197 49
-332 87 -594 130 -1015 167 -121 11 -555 20 -650 14z m272 -311 c-5 -102 -7
-113 -48 -236 -16 -51 -41 -131 -54 -179 l-24 -88 70 0 69 0 0 -70 0 -70 -129
0 c-70 0 -149 -3 -175 -6 l-46 -7 0 39 c0 22 12 82 26 134 14 52 27 104 29
115 1 11 21 81 44 156 22 74 41 138 41 142 0 4 -29 7 -65 7 l-65 0 0 69 c0 46
4 71 13 74 6 3 81 6 165 6 l154 1 -5 -87z m-627 32 c51 -26 72 -76 78 -179 l5
-92 -32 -26 c-27 -23 -29 -27 -13 -32 10 -4 31 -19 46 -35 24 -25 30 -44 49
-170 11 -77 17 -144 13 -148 -4 -4 -42 -12 -84 -18 l-77 -11 -13 86 c-34 225
-34 225 -66 228 l-28 4 6 -49 c4 -26 8 -73 10 -103 2 -30 7 -83 11 -116 l7
-62 -87 -12 c-96 -14 -103 -11 -106 40 -5 89 -12 152 -44 378 -19 139 -35 263
-35 277 0 19 6 25 33 30 154 27 285 32 327 10z m1935 -97 c38 -11 74 -25 79
-29 5 -4 -4 -62 -19 -131 -16 -68 -29 -136 -31 -153 -2 -16 -7 -50 -13 -75 -6
-25 -11 -52 -11 -59 0 -22 19 0 25 27 2 12 23 63 45 114 23 51 43 99 45 108 6
28 65 140 75 140 17 0 169 -51 173 -58 2 -4 -13 -80 -33 -170 -21 -89 -40
-188 -44 -220 l-6 -57 41 95 c22 52 49 115 58 140 15 38 79 178 87 188 2 3
156 -47 162 -53 4 -3 -103 -265 -130 -319 -11 -21 -21 -46 -23 -55 -2 -9 -24
-62 -49 -119 -25 -56 -46 -106 -46 -111 0 -5 -7 -22 -17 -38 l-16 -29 -56 12
c-31 6 -81 20 -111 30 l-55 19 1 51 c1 28 9 98 19 156 9 58 15 113 13 124 -2
10 -34 -48 -76 -137 -83 -177 -66 -168 -209 -122 -60 19 -83 31 -83 43 0 9 11
77 25 151 14 74 25 145 25 158 0 37 71 401 78 401 4 0 38 -10 77 -22z m-2557
-138 c35 -80 65 -152 67 -160 1 -8 23 -61 48 -117 25 -57 44 -103 42 -103 -2
0 9 -29 26 -65 16 -35 29 -70 29 -78 0 -8 -32 -21 -86 -34 l-85 -21 -9 22
c-34 91 -39 97 -67 94 -28 -3 -28 -3 -25 -75 l2 -72 -37 -7 c-21 -3 -63 -12
-93 -20 -30 -7 -55 -12 -56 -11 -4 5 -54 442 -64 562 -6 72 -12 138 -13 149
-2 15 17 24 113 52 63 18 122 32 130 31 9 -1 40 -61 78 -147z m-568 -125 c16
-66 34 -131 39 -145 17 -45 53 -170 56 -193 2 -23 27 -113 51 -186 17 -49 15
-52 -41 -70 -22 -8 -58 -22 -80 -33 -89 -43 -78 -48 -141 60 -79 134 -125 204
-131 199 -2 -3 12 -67 32 -142 45 -167 49 -201 26 -209 -9 -2 -56 -19 -105
-36 -49 -17 -93 -27 -97 -23 -4 4 -28 48 -53 96 -26 49 -58 105 -71 125 -14
20 -25 41 -25 47 0 5 -16 37 -36 70 -48 79 -157 286 -152 290 6 5 110 56 133
65 23 9 27 3 96 -138 69 -140 129 -246 135 -239 2 2 -14 59 -36 128 -35 110
-70 251 -70 280 0 14 162 91 172 81 4 -4 51 -94 103 -200 53 -106 100 -192
105 -192 9 0 -6 57 -55 205 -14 44 -28 97 -31 118 -3 21 -9 49 -14 63 -17 43
-12 50 48 77 65 29 94 36 104 27 4 -3 21 -60 38 -125z m2393 13 l107 -11 -6
-36 c-12 -79 -16 -91 -27 -91 -14 0 -139 17 -184 25 -32 6 -33 7 -33 59 0 75
-11 71 143 54z m1663 -72 c32 -13 94 -40 136 -61 l77 -37 -15 -36 c-9 -21 -17
-46 -20 -56 -6 -34 -17 -35 -74 -11 -30 13 -58 21 -61 19 -16 -10 -50 -99 -45
-118 3 -14 22 -29 51 -42 l46 -19 -28 -55 c-15 -30 -28 -57 -29 -58 -1 -2 -24
6 -49 17 -26 12 -51 21 -56 21 -9 0 -69 -124 -69 -142 0 -5 25 -20 55 -34 30
-14 57 -30 60 -35 5 -7 -50 -119 -59 -119 -6 0 -190 82 -235 105 -28 14 -51
30 -51 36 0 6 16 43 36 82 20 40 42 88 49 107 8 19 47 107 87 195 41 88 85
184 98 213 13 28 26 52 30 52 3 0 33 -11 66 -24z m531 -260 l53 -26 -32 -63
c-18 -34 -37 -69 -44 -77 -7 -8 -29 -49 -50 -90 -21 -41 -53 -98 -71 -127 -18
-29 -33 -56 -33 -60 0 -5 -19 -40 -42 -79 -24 -39 -52 -87 -62 -107 -11 -20
-22 -37 -25 -37 -3 0 -37 17 -76 38 -84 45 -85 51 -21 162 24 41 83 147 131
235 48 88 105 190 127 227 l40 68 27 -19 c14 -10 50 -30 78 -45z m-5521 2 c16
-24 34 -52 40 -63 34 -62 109 -191 115 -195 3 -3 32 -51 65 -108 32 -57 71
-124 86 -150 15 -26 28 -52 28 -58 0 -10 -122 -94 -137 -94 -14 0 -58 63 -113
162 -47 84 -56 95 -73 87 -33 -18 -29 -35 25 -129 90 -155 94 -162 82 -167 -6
-2 -41 -24 -79 -48 l-68 -45 -65 113 c-36 61 -80 135 -97 162 -18 28 -49 79
-69 115 -21 36 -59 103 -87 148 -27 46 -49 87 -49 92 0 8 142 100 154 100 3 0
6 -5 6 -11 0 -6 20 -41 44 -78 24 -36 51 -81 60 -98 19 -38 23 -39 54 -17 l22
15 -27 47 c-15 26 -30 49 -33 52 -9 7 -71 123 -67 126 6 6 143 83 148 83 4 1
19 -18 35 -41z m3219 -222 c500 -70 816 -148 1195 -293 80 -31 179 -72 220
-91 141 -65 305 -146 360 -177 30 -18 89 -52 130 -75 102 -59 351 -223 415
-274 29 -22 90 -70 136 -106 126 -97 280 -232 399 -350 167 -167 245 -257 474
-551 58 -75 216 -314 276 -419 23 -41 57 -100 75 -130 63 -108 188 -374 246
-524 22 -55 44 -110 49 -121 47 -96 216 -715 224 -817 2 -24 15 -122 29 -218
64 -428 64 -815 1 -1250 -14 -96 -28 -195 -30 -220 -6 -66 -90 -403 -141 -570
-99 -323 -261 -696 -421 -970 -31 -52 -60 -104 -66 -115 -6 -11 -60 -92 -119
-180 -289 -428 -628 -794 -1012 -1089 -55 -42 -109 -85 -120 -95 -36 -33 -283
-194 -429 -279 -519 -304 -1108 -513 -1676 -597 -537 -78 -921 -82 -1385 -14
-77 12 -171 25 -209 30 -166 21 -636 153 -861 241 -231 90 -509 223 -686 328
-55 33 -102 60 -104 60 -1 0 -76 50 -166 110 -450 302 -795 624 -1124 1046
-75 96 -282 395 -311 449 -6 11 -38 67 -71 125 -74 130 -168 316 -218 435 -21
50 -45 99 -52 110 -7 11 -13 26 -13 35 0 8 -15 52 -34 97 -83 201 -212 678
-240 888 -8 61 -22 154 -30 207 -30 194 -39 384 -33 692 6 291 18 431 57 647
6 34 12 72 12 83 0 30 15 100 59 286 111 459 265 848 503 1265 50 88 96 166
103 173 7 7 25 34 40 60 35 61 133 204 148 217 7 6 45 55 86 110 236 319 570
647 914 900 22 16 42 32 45 36 11 15 295 200 382 249 51 29 109 63 128 75 19
13 103 55 185 95 83 40 162 79 177 86 15 8 84 37 155 65 70 27 142 56 158 63
17 8 41 17 55 20 14 4 88 27 165 51 165 52 385 110 482 125 37 7 102 18 143
25 68 13 328 48 425 59 22 2 209 2 415 1 270 -2 406 -8 485 -19z m2705 -22
c78 -45 131 -110 137 -167 3 -34 -2 -52 -27 -94 -17 -29 -36 -53 -44 -53 -10
0 -111 64 -135 86 -2 1 6 18 18 37 29 48 28 77 -4 77 -13 0 -33 -10 -44 -21
-35 -38 -35 -69 3 -155 54 -125 61 -157 47 -206 -16 -51 -65 -121 -122 -173
-39 -35 -45 -37 -88 -32 -110 14 -224 105 -236 190 -8 53 4 95 45 161 l30 46
70 -46 c70 -47 79 -57 60 -69 -17 -11 -50 -83 -50 -110 0 -20 5 -25 25 -25 18
0 34 12 56 43 38 52 36 74 -15 204 -20 51 -36 105 -36 121 0 65 108 214 163
225 40 9 87 -4 147 -39z m-6498 -169 c30 -20 130 -131 140 -157 3 -7 -128
-108 -140 -108 -4 0 -31 32 -61 70 -29 39 -59 70 -66 70 -25 0 -45 -12 -45
-27 0 -15 70 -122 99 -150 9 -10 50 -62 91 -116 86 -115 116 -143 137 -125 21
17 9 62 -29 111 -18 23 -36 45 -40 48 -5 3 2 14 14 25 30 26 124 94 131 94 10
0 95 -144 102 -173 20 -77 -65 -200 -163 -237 -65 -25 -118 -25 -158 -1 -48
29 -193 199 -282 330 -53 77 -57 87 -57 141 0 49 5 65 30 101 41 58 94 98 157
120 60 21 87 18 140 -16z m6961 -191 c98 -33 196 -157 184 -231 -6 -32 -71
-133 -85 -133 -4 0 -35 25 -69 54 l-62 54 35 45 c20 25 33 51 29 56 -11 18
-58 12 -82 -11 -29 -27 -30 -68 -3 -183 23 -100 24 -123 8 -178 -15 -49 -103
-148 -154 -172 -31 -14 -42 -15 -86 -4 -42 10 -63 24 -124 83 -55 54 -74 80
-79 108 -8 41 1 92 18 111 7 6 27 31 45 55 19 23 39 42 46 42 7 0 38 -23 69
-52 l56 -52 -34 -38 c-43 -47 -54 -84 -31 -106 15 -15 18 -14 43 4 60 45 66
87 34 247 -20 101 -18 126 12 183 30 57 126 134 168 134 8 0 36 -7 62 -16z
m-7469 -256 c31 -23 56 -46 56 -52 0 -7 -26 -37 -58 -69 l-58 -57 -29 30 c-37
39 -75 41 -75 4 0 -27 51 -84 75 -84 7 0 49 7 92 15 158 30 223 14 308 -76 86
-92 91 -146 20 -241 -69 -93 -172 -142 -242 -113 -31 13 -122 87 -131 106 -1
3 24 33 57 67 l59 60 38 -40 c54 -55 71 -63 94 -43 24 22 16 48 -28 86 -33 30
-38 31 -96 25 -34 -4 -104 -9 -156 -12 l-96 -6 -44 34 c-24 18 -59 53 -77 77
-74 96 -25 225 117 305 67 38 106 34 174 -16z m2004 -8868 c239 -77 289 -141
231 -294 -23 -63 -58 -96 -100 -96 -37 0 -37 -13 0 -39 16 -11 31 -31 33 -44
11 -58 -60 -238 -108 -276 -22 -17 -37 -21 -62 -17 -40 6 -233 69 -296 95
l-46 20 36 98 c20 54 44 123 54 154 9 31 33 98 53 150 19 52 49 136 67 187 18
50 35 92 39 92 4 0 48 -13 99 -30z m3441 -137 c31 -35 48 -67 67 -132 15 -47
44 -144 66 -215 44 -140 48 -178 25 -222 -74 -142 -313 -180 -385 -62 -42 69
-40 73 40 97 40 11 78 21 84 21 6 0 17 -15 25 -32 11 -27 20 -33 44 -33 28 0
30 3 30 35 -1 53 -24 130 -40 137 -9 3 -24 -5 -36 -21 -47 -60 -155 -56 -203
7 -40 52 -86 204 -86 283 0 67 0 68 46 112 63 60 94 71 196 72 l86 0 41 -47z
m-2841 -44 c34 -6 64 -14 66 -18 4 -7 -4 -52 -34 -191 -5 -25 -24 -97 -40
-160 -17 -63 -33 -129 -35 -145 -2 -17 -15 -71 -28 -120 -20 -74 -28 -90 -43
-89 -43 3 -148 24 -155 31 -8 8 9 84 88 398 25 99 47 192 48 207 2 15 9 46 16
68 11 35 16 40 33 36 12 -3 49 -11 84 -17z m2282 -68 c6 -25 9 -162 8 -373
l-3 -333 -55 -12 c-30 -6 -70 -12 -89 -12 l-33 -1 7 309 7 309 -63 -14 c-111
-23 -115 -22 -123 37 -4 29 -3 55 1 60 9 8 273 66 310 68 18 1 24 -7 33 -38z
m-1820 -50 c0 -14 -13 -105 -29 -201 -16 -96 -29 -182 -29 -190 0 -8 -3 -50
-7 -92 -8 -85 -11 -82 65 -90 24 -3 25 -6 23 -62 -1 -33 -7 -64 -12 -69 -6 -6
-46 -4 -115 7 -57 9 -117 16 -133 16 -51 0 -52 4 -27 165 13 83 24 164 25 180
1 17 15 109 30 207 16 97 29 178 29 180 0 3 41 -2 90 -10 87 -14 90 -16 90
-41z m1299 -58 c-11 -12 -10 -17 4 -24 15 -9 19 -23 31 -112 l5 -38 -62 3 -62
3 -3 72 -3 72 48 48 47 48 4 -28 c2 -16 -2 -35 -9 -44z m-843 35 c4 -5 6 -61
5 -125 -2 -86 1 -115 9 -107 6 6 13 23 16 39 3 15 11 39 18 54 7 14 21 49 30
77 16 49 19 52 58 57 23 3 63 3 89 0 l47 -5 -33 -87 c-18 -47 -46 -120 -61
-161 l-27 -74 28 -114 c16 -63 30 -122 30 -131 1 -9 10 -49 20 -89 10 -40 15
-75 13 -78 -3 -3 -46 -2 -96 2 l-91 7 -16 72 c-9 40 -15 76 -13 81 1 5 -4 42
-12 83 -17 91 -28 73 -29 -50 -1 -47 -4 -107 -7 -133 l-7 -46 -94 0 -94 0 6
73 c3 39 9 182 15 317 6 135 13 269 16 298 l6 54 83 -4 c46 -1 87 -6 91 -10z"/>
<path d="M6339 12615 c-8 -7 12 -138 22 -149 5 -5 14 -4 24 4 18 15 20 85 2
120 -12 24 -37 37 -48 25z"/>
<path d="M5730 12394 c0 -5 7 -56 15 -114 8 -58 15 -108 15 -112 0 -11 48 -10
54 0 3 5 -13 57 -34 117 -37 102 -50 131 -50 109z"/>
<path d="M6845 11619 c-982 -38 -1933 -409 -2715 -1057 -135 -112 -443 -418
-551 -547 -633 -755 -999 -1652 -1070 -2622 -15 -199 -6 -662 15 -838 116
-952 497 -1811 1112 -2505 591 -668 1340 -1141 2188 -1381 233 -66 514 -119
796 -151 152 -17 717 -17 870 0 399 44 763 125 1100 245 1505 536 2620 1820
2939 3387 60 294 80 478 88 806 9 376 -14 643 -87 1004 -178 889 -596 1672
-1239 2319 -299 301 -595 529 -961 740 -597 346 -1341 569 -1980 596 -280 11
-320 12 -505 4z m733 -229 c1198 -150 2247 -758 2974 -1725 464 -617 750
-1353 842 -2160 23 -204 16 -792 -12 -985 -33 -225 -59 -361 -104 -534 -414
-1625 -1729 -2870 -3373 -3195 -336 -66 -560 -85 -934 -78 -379 7 -664 45
-1016 137 -767 201 -1444 594 -2000 1161 -228 233 -377 416 -539 663 -386 590
-614 1233 -697 1966 -20 175 -18 698 4 880 69 573 213 1053 458 1528 575 1115
1586 1925 2793 2236 226 59 564 113 806 130 150 10 641 -4 798 -24z"/>
<path d="M7593 9947 c-13 -18 -23 -39 -23 -45 0 -14 -22 -24 -87 -41 -27 -8
-51 -23 -64 -41 -22 -28 -22 -29 -48 -10 -14 10 -52 21 -84 24 -32 4 -80 18
-107 31 -27 14 -58 25 -70 25 -18 0 -20 -6 -20 -72 0 -43 -7 -92 -17 -120 -19
-53 -13 -67 39 -94 25 -13 31 -13 57 1 17 8 33 19 36 25 11 18 41 11 53 -12
15 -29 31 -137 24 -158 -2 -8 -21 -32 -40 -52 -32 -34 -42 -38 -104 -44 -46
-4 -77 -13 -95 -27 -56 -44 -80 -157 -49 -232 14 -34 59 -61 169 -104 22 -9
27 -17 27 -44 0 -65 44 -75 97 -22 19 19 38 35 42 35 4 0 18 -11 31 -25 30
-32 40 -31 75 5 l29 31 34 -38 35 -37 21 27 c28 35 42 34 61 -3 15 -29 21
-101 9 -113 -4 -3 -21 0 -39 8 -18 7 -68 21 -111 30 -73 17 -85 17 -238 0
-202 -22 -236 -16 -367 61 -101 60 -139 72 -181 55 -22 -8 -28 -17 -28 -40 0
-38 53 -85 164 -143 l81 -43 155 2 c109 1 170 6 205 17 67 21 103 20 159 -5
39 -17 45 -23 35 -35 -14 -17 -32 -18 -75 -2 -29 10 -36 9 -55 -8 -12 -10 -33
-19 -47 -19 -34 0 -55 -38 -40 -70 8 -18 6 -29 -12 -52 -29 -41 -19 -80 26
-99 18 -8 43 -14 54 -14 25 0 26 -12 3 -32 -30 -25 -47 -27 -138 -11 l-87 15
-82 -32 c-76 -30 -86 -32 -165 -26 -46 3 -91 10 -99 15 -9 5 -28 38 -42 72
-28 69 -50 88 -50 42 0 -49 30 -157 50 -185 11 -15 20 -32 20 -37 0 -25 -91
-43 -105 -21 -3 6 -15 10 -25 10 -27 0 -138 49 -190 84 -60 40 -130 106 -130
121 0 8 25 15 71 19 80 8 102 23 118 83 17 58 14 149 -5 167 -8 9 -16 16 -17
17 -1 0 -104 4 -229 9 -155 5 -233 11 -243 20 -24 20 -29 74 -10 124 22 56 15
99 -25 157 -16 24 -30 48 -30 53 0 5 14 36 30 70 76 154 63 344 -32 486 -44
67 -90 107 -169 147 -47 23 -66 27 -144 27 -76 1 -98 -3 -145 -25 -70 -33
-113 -69 -167 -142 -58 -80 -83 -164 -83 -281 0 -102 15 -163 60 -240 l30 -53
-35 -33 c-70 -68 -82 -167 -29 -246 14 -20 22 -39 19 -43 -4 -3 -142 -6 -307
-6 l-301 0 -20 -38 c-26 -51 -27 -132 -3 -170 41 -61 47 -62 434 -65 l352 -3
0 -568 c0 -621 4 -581 -55 -581 -37 0 -133 -39 -155 -63 -25 -26 -28 -142 -6
-173 14 -18 15 -18 22 11 12 53 25 59 47 23 11 -18 26 -37 33 -41 19 -11 8
-27 -17 -27 -41 0 -107 -45 -191 -132 -57 -58 -88 -97 -88 -111 0 -12 12 -47
26 -77 21 -46 27 -52 35 -37 6 9 7 22 4 27 -11 18 14 48 50 60 33 11 36 10 66
-24 19 -23 40 -36 55 -36 26 0 138 53 149 70 3 5 10 10 16 10 17 0 9 -27 -21
-65 -16 -20 -32 -54 -35 -74 -3 -20 -11 -63 -16 -96 -13 -74 -2 -107 39 -124
29 -12 31 -16 38 -89 4 -43 4 -243 0 -447 -3 -203 -6 -536 -7 -738 0 -202 -2
-374 -6 -382 -3 -8 -18 -15 -33 -15 -46 0 -81 53 -220 331 -121 243 -190 415
-190 473 0 18 22 44 80 96 85 77 106 116 95 173 -10 47 -314 629 -358 685 -6
8 -32 24 -58 37 -57 29 -70 22 -92 -50 -24 -75 -63 -315 -88 -531 -21 -186
-21 -192 -4 -248 25 -79 63 -127 133 -170 57 -34 61 -40 71 -88 20 -90 213
-543 279 -653 55 -93 149 -232 215 -319 68 -90 293 -329 313 -334 8 -2 62 29
121 70 83 56 152 117 293 258 213 214 300 314 350 403 28 49 41 63 63 65 22 3
29 -2 38 -25 10 -27 66 -93 80 -93 3 0 9 19 13 42 5 29 18 52 45 80 44 44 77
52 67 16 -4 -13 -10 -50 -13 -83 l-5 -61 41 -37 c59 -53 70 -50 64 21 -3 39
-1 63 9 75 14 19 88 48 100 40 5 -2 8 -27 8 -54 0 -27 6 -64 14 -82 25 -60
160 -166 214 -167 26 0 23 29 -8 71 -34 49 -55 143 -36 157 21 17 144 82 154
82 5 0 15 -18 22 -41 20 -61 56 -94 118 -109 70 -16 84 -4 44 41 -41 48 -52
72 -52 116 1 52 30 111 79 157 67 62 75 84 77 226 1 69 2 140 3 159 1 27 15
48 79 115 43 44 117 126 164 181 47 55 96 110 109 121 29 26 78 36 130 28 l39
-7 0 -52 c0 -68 -17 -245 -31 -312 -7 -35 -33 -88 -79 -161 -128 -206 -130
-222 -13 -165 74 37 139 95 169 154 13 27 28 49 33 49 15 0 86 -57 129 -103
l42 -47 0 -107 c0 -116 -14 -264 -31 -326 -10 -38 -11 -39 -47 -32 -20 3 -67
24 -104 45 -87 49 -131 64 -177 56 -20 -3 -50 0 -68 6 -26 10 -39 8 -73 -7
-68 -31 -118 -94 -94 -118 4 -3 24 3 45 14 31 15 44 17 60 8 17 -9 20 -17 15
-43 -6 -30 -2 -37 39 -75 l45 -41 95 0 c107 0 110 -3 69 -64 -25 -37 -28 -38
-68 -32 -85 13 -175 19 -198 13 -17 -5 -35 -25 -56 -64 -17 -32 -42 -69 -57
-83 -51 -48 -67 -85 -60 -137 8 -65 34 -135 48 -130 10 3 15 18 33 105 l4 22
28 -19 c35 -26 147 -54 182 -46 39 9 63 39 69 88 l6 42 88 21 c48 12 101 24
118 28 l29 6 0 -56 c0 -48 -4 -61 -30 -90 -16 -18 -32 -51 -35 -71 -4 -21 -12
-49 -18 -62 -17 -34 -13 -100 8 -140 l18 -35 16 22 c9 11 24 33 34 47 20 28
44 31 110 13 40 -10 47 -9 76 11 26 19 81 95 81 113 0 4 -16 25 -36 49 -43 52
-40 74 19 139 23 25 59 65 79 88 20 23 44 42 53 42 9 0 32 -12 51 -27 68 -51
185 -38 214 25 6 15 14 51 17 80 6 51 6 52 39 52 18 0 45 -5 59 -12 40 -18 52
2 29 49 -29 59 -50 65 -196 59 -120 -4 -128 -3 -128 14 0 25 18 35 55 31 38
-3 55 27 55 94 0 24 4 46 8 49 5 3 33 -10 63 -28 89 -56 135 -63 212 -34 37
14 34 23 -17 42 -26 10 -63 37 -90 66 -61 66 -61 88 2 56 39 -19 162 -28 222
-15 97 21 233 149 158 149 -13 0 -43 -7 -68 -16 -61 -22 -133 -13 -209 25 -33
17 -61 35 -61 40 0 5 44 11 98 13 89 3 104 6 180 42 91 43 126 77 141 134 29
106 12 114 -74 31 l-65 -62 -82 2 c-46 1 -139 11 -208 22 -114 18 -128 22
-158 52 -40 38 -113 160 -148 247 l-26 63 32 126 c39 154 88 329 100 357 8 20
17 22 142 26 143 4 151 7 234 68 72 54 97 111 124 285 33 217 67 346 135 520
95 242 103 271 141 535 39 274 47 314 81 385 24 53 29 85 14 85 -19 0 -143
-201 -162 -260 -10 -34 -30 -120 -43 -193 -14 -73 -28 -140 -32 -150 -13 -35
-37 -11 -94 93 -31 58 -75 134 -98 169 -23 35 -42 72 -42 82 0 10 12 49 26 86
87 227 114 343 124 523 5 85 12 190 16 233 l7 77 63 50 c39 32 70 66 82 93 25
50 48 186 38 213 -7 18 -8 17 -21 -6 -8 -14 -14 -35 -15 -47 0 -14 -6 -23 -15
-23 -19 0 -19 17 2 171 15 112 15 133 2 180 -11 42 -18 54 -34 54 -18 0 -20
-9 -26 -118 -6 -99 -10 -121 -25 -132 -40 -31 -41 -30 -14 130 22 131 17 193
-20 279 -21 51 -33 61 -49 42 -8 -10 -8 -34 0 -92 14 -102 6 -219 -17 -245
-35 -39 -41 -25 -46 105 -4 109 -8 131 -32 179 -30 62 -102 135 -118 119 -6
-6 -8 -32 -6 -59 36 -377 37 -342 -13 -421 -17 -26 -21 -48 -21 -116 0 -122
35 -231 103 -317 29 -36 29 -39 29 -171 0 -183 -14 -281 -62 -428 -47 -145
-65 -183 -80 -174 -17 11 -114 222 -141 309 -24 78 -49 246 -62 415 l-7 85 41
40 c48 46 63 87 90 248 17 98 18 117 5 210 -20 154 -18 296 6 364 33 96 4 99
-85 10 -57 -58 -64 -68 -78 -132 -8 -39 -18 -101 -22 -139 -5 -45 -10 -65 -17
-58 -15 15 -10 160 7 216 18 61 19 76 2 76 -15 0 -59 -52 -100 -117 -30 -47
-43 -52 -63 -26 -11 16 -17 8 -53 -67 -58 -120 -54 -166 30 -334 41 -83 47
-106 26 -106 -16 0 -54 40 -93 100 l-29 45 -3 -53 c-5 -82 22 -160 71 -204 22
-21 45 -38 51 -38 6 -1 20 -9 32 -18 18 -16 22 -33 28 -137 8 -121 28 -261 47
-325 22 -71 74 -189 155 -352 46 -92 84 -178 84 -190 0 -11 -24 -62 -54 -112
-68 -116 -96 -171 -111 -220 -7 -22 -17 -42 -23 -44 -14 -4 -45 83 -82 230
-34 133 -79 234 -136 304 -56 68 -78 54 -54 -35 39 -143 103 -439 119 -552 36
-250 80 -340 300 -619 59 -74 81 -137 81 -225 0 -100 -49 -143 -149 -131 -92
11 -95 13 -128 79 -17 34 -69 110 -114 168 -88 111 -230 322 -319 474 -29 50
-85 131 -125 180 -109 136 -106 131 -66 164 19 15 31 33 28 38 -4 6 -27 14
-52 17 -86 13 -133 82 -122 177 8 64 27 127 41 132 6 2 43 -1 82 -6 67 -10 72
-9 117 17 60 36 63 59 6 50 -36 -6 -44 -3 -74 26 -73 71 -71 133 6 209 l49 49
-15 58 c-28 106 -20 134 39 134 12 0 31 7 42 15 18 15 18 16 -10 39 -25 21
-31 36 -47 132 -24 140 -40 317 -29 327 4 5 16 4 27 -1 11 -6 25 -7 33 -2 10
6 4 23 -30 76 l-43 68 7 107 7 108 -43 43 c-24 25 -56 53 -72 65 -26 18 -28
24 -22 56 4 19 15 46 25 58 16 20 21 21 35 10 34 -28 136 6 136 46 0 7 -9 30
-20 50 -24 45 -25 74 -5 139 8 27 15 52 15 57 0 15 -37 6 -90 -22 -38 -19 -77
-30 -125 -34 -49 -5 -74 -12 -82 -24 -23 -30 -15 -60 23 -91 42 -35 39 -46
-20 -73 -59 -27 -92 -24 -127 10 -39 40 -37 56 11 70 74 22 80 92 11 135 -21
13 -53 44 -71 68 -33 43 -59 68 -69 68 -3 0 -16 -15 -28 -33z m-1938 -248
c137 -38 219 -226 171 -392 -9 -31 -21 -57 -27 -57 -6 0 -29 13 -52 29 -69 47
-104 61 -148 61 -53 0 -115 -35 -162 -91 -22 -27 -40 -40 -49 -36 -8 3 -25 32
-37 66 -19 50 -22 75 -19 148 4 97 18 136 73 201 63 73 151 98 250 71z m64
-1456 c12 -42 37 -83 52 -83 5 0 15 11 21 25 29 65 62 0 56 -112 -3 -58 -10
-92 -30 -132 -15 -30 -25 -58 -22 -63 14 -22 63 -6 113 37 29 25 56 45 61 45
14 0 21 -35 23 -102 1 -56 -4 -73 -44 -151 l-45 -88 -19 21 c-11 12 -24 35
-30 53 -5 17 -16 32 -22 35 -18 5 -17 -95 1 -127 17 -30 81 -73 178 -119 43
-20 78 -42 78 -48 0 -19 -67 -65 -162 -111 -49 -24 -108 -61 -131 -82 -52 -47
-88 -71 -104 -71 -10 0 -13 86 -13 418 0 441 8 692 21 692 5 0 13 -17 18 -37z
m430 -524 c27 -79 8 -110 -83 -129 -40 -9 -59 -9 -89 2 -22 7 -40 17 -40 21
-1 5 23 17 53 27 41 13 65 30 95 64 22 25 43 46 47 46 3 0 11 -14 17 -31z
m2905 -47 c51 -101 70 -203 85 -432 l8 -125 -31 -60 c-28 -54 -34 -60 -60 -58
-32 2 -93 56 -127 110 -50 80 -64 303 -26 413 27 79 104 213 118 205 5 -4 20
-27 33 -53z m-1849 -617 c88 -68 184 -111 353 -155 84 -22 162 -45 175 -51 74
-40 157 -135 157 -181 0 -47 -104 -128 -267 -211 l-144 -72 -137 -5 -137 -5
-107 -87 c-127 -103 -167 -125 -245 -134 -32 -4 -69 -11 -82 -16 -21 -8 -23
-11 -10 -23 8 -8 48 -32 89 -53 84 -44 99 -64 107 -146 8 -79 -4 -138 -38
-190 -34 -51 -143 -146 -198 -173 -44 -20 -121 -28 -196 -18 -50 6 -56 9 -53
28 2 13 29 41 68 69 144 106 187 145 193 177 14 67 -67 381 -153 601 -76 192
-106 215 -178 136 -76 -82 -158 -268 -273 -620 -57 -175 -61 -163 61 -220 77
-37 80 -39 80 -72 0 -19 -3 -34 -6 -34 -4 0 -21 13 -40 30 -18 16 -51 32 -71
36 -21 4 -98 31 -170 60 -73 30 -141 54 -151 54 -11 0 -46 -13 -78 -30 -32
-16 -62 -30 -66 -30 -5 0 -8 187 -8 415 l0 415 23 10 c12 5 40 12 61 15 27 4
52 19 80 46 23 22 57 47 76 57 45 22 80 89 80 154 l0 48 38 0 c46 0 78 -17
146 -75 48 -40 76 -55 76 -39 0 3 -12 26 -26 50 -18 30 -23 49 -17 55 5 5 41
12 79 16 66 5 72 4 148 -36 44 -22 82 -39 85 -36 3 3 -7 30 -22 61 -24 49 -25
55 -10 61 26 10 131 -16 195 -48 85 -43 96 -31 48 52 -17 28 -28 54 -25 57 3
3 60 -4 127 -16 148 -26 347 -47 356 -37 4 4 -2 12 -12 19 -42 24 -86 69 -86
86 0 63 28 64 105 5z m-1465 -405 c0 -22 -38 -62 -52 -54 -4 3 -8 21 -8 40 0
31 2 34 30 34 23 0 30 -4 30 -20z m72 -1052 c2 -35 12 -78 21 -97 9 -19 17
-36 17 -38 0 -13 -55 2 -107 29 l-63 33 0 48 c0 35 4 47 15 47 8 0 15 6 15 14
0 18 15 24 61 25 l37 1 4 -62z m88 -350 c0 -7 -18 -39 -40 -72 -22 -32 -40
-71 -40 -86 0 -46 29 -114 70 -164 22 -27 40 -52 40 -56 0 -15 -90 -90 -139
-114 -28 -14 -64 -26 -81 -26 l-30 0 0 246 0 246 23 -6 c64 -18 72 -17 112 13
41 31 85 40 85 19z"/>
<path d="M3520 7639 c-143 -23 -310 -148 -382 -285 -52 -99 -68 -163 -68 -268
0 -186 74 -339 216 -446 245 -185 589 -144 783 93 77 94 113 189 119 312 2 55
-1 127 -7 160 -29 156 -149 309 -301 384 -116 56 -226 71 -360 50z m241 -75
c30 -9 80 -30 111 -46 93 -49 203 -179 224 -263 7 -28 5 -27 -57 28 -107 95
-229 147 -346 147 -65 0 -93 23 -93 76 0 57 14 74 64 74 23 0 67 -7 97 -16z
m-221 -54 c0 -34 7 -74 15 -90 14 -26 13 -31 -10 -72 -19 -34 -25 -57 -25
-109 0 -60 4 -72 35 -119 22 -33 33 -60 30 -71 -10 -30 -64 -69 -97 -69 -40 0
-120 44 -147 81 -41 55 -51 174 -26 306 23 123 29 131 109 169 39 18 81 33 94
34 20 0 22 -4 22 -60z m-301 -191 c-18 -117 0 -225 50 -299 26 -39 28 -46 16
-63 -37 -54 -124 -76 -145 -38 -5 11 -14 52 -20 92 -13 92 0 199 34 268 30 64
67 123 72 118 3 -2 -1 -37 -7 -78z m633 -1 c56 -28 92 -56 145 -111 84 -89
115 -147 106 -200 -7 -46 -16 -52 -46 -32 -13 8 -51 18 -85 21 -61 7 -63 8
-81 48 -38 88 -122 128 -223 107 -69 -14 -81 -9 -98 45 -14 42 -7 87 20 133
l21 33 83 -3 c71 -4 92 -9 158 -41z m-78 -238 c34 -13 66 -66 66 -111 0 -31
-8 -45 -57 -93 -31 -32 -76 -69 -100 -83 -52 -30 -164 -69 -256 -89 -112 -23
-118 -22 -181 47 -31 33 -56 63 -56 67 0 4 21 15 48 24 26 10 64 34 85 56 l38
39 52 -14 c28 -7 67 -10 85 -7 41 8 93 51 123 102 37 62 50 72 90 72 21 0 49
-4 63 -10z m239 -162 c40 -15 44 -49 13 -102 -32 -55 -124 -140 -187 -172
-109 -55 -262 -70 -369 -35 l-55 18 45 12 c221 62 324 122 418 242 48 62 59
65 135 37z"/>
<path d="M10363 7635 c-131 -29 -270 -127 -345 -246 -105 -164 -116 -375 -31
-557 37 -80 167 -209 253 -250 71 -35 180 -62 250 -62 194 0 399 121 492 290
53 94 68 158 68 275 0 166 -47 282 -160 395 -140 141 -333 197 -527 155z m147
-74 c15 -30 12 -92 -7 -113 -11 -12 -30 -18 -63 -18 -126 0 -254 -52 -357
-145 -35 -31 -63 -52 -63 -46 0 7 14 39 31 73 37 73 102 145 172 190 107 69
264 101 287 59z m200 -30 c64 -31 72 -45 96 -160 24 -121 16 -247 -19 -300
-48 -73 -149 -112 -202 -77 -13 9 -31 29 -39 44 -13 26 -12 31 21 84 46 74 50
151 11 226 l-25 49 19 38 c16 30 19 49 14 88 l-7 49 38 -7 c21 -3 63 -19 93
-34z m221 -218 c49 -94 66 -191 51 -295 -15 -102 -24 -118 -67 -118 -24 0 -45
9 -70 31 -40 35 -44 58 -15 84 35 32 55 111 54 220 0 55 -3 113 -7 128 -14 52
16 25 54 -50z m-423 19 c31 -43 37 -96 17 -147 -19 -50 -17 -50 -96 -33 -98
20 -182 -21 -219 -107 -17 -41 -20 -42 -73 -48 -30 -3 -69 -13 -87 -22 -39
-20 -50 -10 -50 48 0 52 29 105 102 182 98 105 200 154 320 155 62 0 68 -2 86
-28z m-61 -264 c11 -13 28 -37 36 -54 22 -44 79 -90 119 -98 18 -3 57 0 85 7
l52 14 38 -39 c21 -22 59 -46 85 -56 27 -9 48 -20 48 -25 0 -5 -25 -35 -57
-68 -63 -66 -70 -68 -180 -44 -172 36 -274 87 -362 180 -40 42 -51 61 -51 87
0 38 28 86 62 104 38 22 101 17 125 -8z m-231 -179 c75 -104 227 -198 376
-234 40 -10 77 -21 81 -25 5 -4 -21 -15 -57 -25 -85 -23 -216 -17 -298 15
-106 40 -247 166 -264 237 -10 40 39 76 114 82 6 1 28 -22 48 -50z"/>
<path d="M5301 2125 c-32 -84 -27 -111 15 -95 40 16 60 141 22 148 -12 2 -22
-12 -37 -53z"/>
<path d="M5231 1906 c-14 -16 -61 -149 -61 -172 0 -10 7 -14 23 -12 44 6 97
159 64 186 -11 10 -17 9 -26 -2z"/>
<path d="M8539 2114 c-11 -14 -10 -29 8 -98 31 -119 48 -156 73 -156 11 0 23
7 27 16 8 22 -43 214 -64 236 -20 22 -27 22 -44 2z"/>
</g>
</svg>
