<svg version="1" xmlns="http://www.w3.org/2000/svg" width="1882.667" height="1882.667" viewBox="0 0 1412.000000 1412.000000"><path d="M673.5 70.6C562.3 76 451 112.3 357.5 173.7c-61.6 40.5-116.3 91.9-160.5 150.8C95.7 459.4 52.6 628.7 76.6 797c25.6 180.1 127.9 340.7 280.9 441.3 141.7 93.1 315.4 125.3 482.5 89.3 100.2-21.6 193.7-67.4 274.5-134.5 17.8-14.8 58.7-55.4 74.1-73.5 49.6-58.4 87.1-121.9 113.2-192.1 21-56.2 33.8-114.7 38.3-175.5.7-10.1 1-29.7.6-57-.6-42-1.3-51.8-5.7-81.5-31.8-215.2-171-399-369.8-488.2C903.4 97.6 838.7 80.4 768 73c-19.1-2-73.7-3.4-94.5-2.4zM741 81c105.7 5.1 212.1 39.6 304 98.6 38.2 24.4 69.4 49.8 103.5 83.9 33.4 33.3 59.8 65.8 83.9 103.5 85.3 132.8 117.2 290.3 90.6 446-42.4 247.3-230.6 446.1-476 502.8-79.5 18.4-164.4 20.9-245.7 7.2-157.3-26.5-298.3-112.2-395-240C124.4 974.6 80 842 80 706.2c.1-185.1 80.9-358.8 222.7-478.9 77-65.1 169.2-110.7 268.3-132.7C626.8 82.3 679.4 78.1 741 81z"/><path d="M684.5 110.6c-40.6 2.6-66.4 5.6-90.5 10.6-8 1.6-16.5 3.4-19 3.8-15.5 2.8-52.6 13.8-74.5 22.1-5.5 2.1-12.5 4.7-15.5 5.8-16.5 5.9-77.8 35.9-80 39.1-.3.4-3.2 2.2-6.5 4-7.1 4-36.5 23.4-44.3 29.3-3 2.3-6.7 5.1-8.1 6.2-11.1 8.3-32.1 25.6-39.1 32.2-28.4 26.5-55.3 55.6-72.3 78.3-3.9 5.2-7.4 9.7-7.8 10-1.6 1.2-26.6 38.8-30.9 46.5-1.8 3.3-3.6 6.2-4 6.5-1.9 1.3-29.7 55.9-31.5 62-.4 1.4-2.3 5.7-4.2 9.7-1.9 3.9-3.5 8-3.7 9-.2 1-2.3 6.4-4.5 12-2.3 5.5-4.4 11.2-4.6 12.5-.3 1.2-2.5 8.1-5 15.2s-4.3 13.1-4.1 13.4c.3.2 0 1.6-.5 3-1.6 4.2-8.6 30.5-8.7 32.7-.1 1.1-1.2 6.9-2.5 13-4.8 21.5-8.1 46.4-10.7 80.5-1.2 16.2-1.2 60.1 0 75.5 2.8 35.2 5.7 57.2 10.1 77.5 1.6 7.4 3.1 14.8 3.3 16.5.4 3.3 6.1 25.5 7.6 29.5.5 1.4 1.2 3.9 1.5 5.7.3 1.8 2.3 8.4 4.6 14.8 2.2 6.3 4.2 12.6 4.4 13.8.3 1.2 2.3 6.7 4.5 12.2 2.3 5.5 4.3 10.8 4.5 11.7.2 1 2.3 5.9 4.6 11s4.2 9.7 4.3 10.3c.4 2.4 17.1 36.1 22.7 45.7 2.1 3.6 3.9 6.9 3.9 7.3 0 .3 2 3.7 4.5 7.5s4.5 7.1 4.5 7.4c0 1.4 28.7 44.2 31.7 47.4 1 1 6.1 7.4 11.2 14.1 32 41.6 79.3 86.1 125.4 117.8 17.7 12.1 32.6 21.5 49.2 31 10.6 6 51.1 26.3 52.6 26.3.5 0 4.2 1.5 8.2 3.3 4 1.9 8.6 3.8 10.2 4.4 1.7.6 8.4 3.1 15 5.6 22.8 8.5 63.2 20.3 77.6 22.7 3.5.5 12.8 2.3 20.5 3.9 7.8 1.6 18.4 3.4 23.5 4 64.7 7.6 106 7.6 166.9.1 24-3 66.4-12.7 94.5-21.5 7.7-2.4 15.1-4.7 16.5-5.1 1.4-.3 3.9-1.2 5.5-2 1.7-.7 8-3.1 14-5.4 12.5-4.6 21-8.2 34.3-14.6 5.1-2.4 9.6-4.4 10.1-4.4s6.9-3.2 14.2-7.1c7.4-3.9 16.8-8.9 20.9-11.1 4.1-2.2 8.2-4.6 9-5.3.8-.7 3.3-2.2 5.5-3.3 5.4-2.7 43.6-28.3 48.8-32.7 2.3-1.9 9.2-7.4 15.2-12.2 33.7-26.4 71-64 96-96.8 3.3-4.3 7.4-9.4 9.1-11.4 3.7-4.2 30.3-43.6 31.4-46.6.4-1.1 2-3.8 3.6-6 1.5-2.2 4.7-7.8 7.2-12.5 2.4-4.7 4.8-9 5.2-9.5 3.1-3.9 24.1-49.1 28.1-60.5 1.1-3 2.4-6.4 2.9-7.5 1.7-3.7 7.2-18 7.5-19.7.2-.9 2.2-7 4.4-13.5s4.3-13.4 4.6-15.3c.3-1.9 1-4.6 1.5-6 2.1-5.9 6.9-24.2 7.5-28.7.2-1.9 1.8-9.6 3.4-17.1 3.5-16.3 4.5-22.7 7.1-47.2 5.2-47.6 5.3-87.8.4-128-.8-6.9-1.9-16.8-2.4-22.1-.9-8.9-4.4-28.3-7.5-40.9-.7-3-1.3-6.2-1.3-7 .1-1.6-5.7-24-7.2-28-.5-1.4-1.2-4-1.5-5.8-.6-3.8-11.9-37.7-14.7-44.2-1.1-2.5-3-7.4-4.3-11-3.2-9.1-7.4-18.5-18.1-40.5-8.4-17.2-12-23.9-24.8-46.2-5.4-9.2-26.3-40.4-32.3-47.9-2.6-3.4-7.7-9.9-11.3-14.5-13-17-21.9-26.9-43.5-48.7-30.9-31.3-58.4-53.9-94.1-77.6-18.1-12.1-20.9-13.8-37.3-23-10.8-6-48.8-25.1-52.1-26.1-1.4-.4-5.3-2.1-8.8-3.7-3.5-1.6-8.7-3.8-11.5-4.8-2.9-1-8.8-3.2-13.2-5-4.4-1.7-9.6-3.6-11.5-4.1-1.9-.4-7.9-2.4-13.3-4.4-5.4-1.9-12.6-4.1-16-4.9-3.4-.8-12.3-3-19.7-4.9-33.2-8.7-59.4-13-101.5-16.7-12.1-1.1-55.5-2-65-1.4zm27.2 31.1c-.5 10.2-.7 11.3-4.8 23.6-1.6 5.1-4.1 13.1-5.4 17.9l-2.4 8.8H713v14h-12.9c-7 0-14.9.3-17.5.6l-4.6.7v-3.9c0-2.2 1.2-8.2 2.6-13.4 1.4-5.2 2.7-10.4 2.9-11.5.1-1.1 2.1-8.1 4.4-15.6 2.2-7.4 4.1-13.8 4.1-14.2 0-.4-2.9-.7-6.5-.7H679v-6.9c0-4.6.4-7.1 1.3-7.4.6-.3 8.1-.6 16.5-.6l15.4-.1-.5 8.7zm-62.7-3.2c5.1 2.6 7.2 7.6 7.8 17.9l.5 9.2-3.2 2.6c-2.7 2.3-2.9 2.7-1.3 3.2 1 .4 3.1 1.9 4.6 3.5 2.4 2.5 3 4.4 4.9 17 1.1 7.7 1.7 14.4 1.3 14.8-.4.4-4.2 1.2-8.4 1.8l-7.7 1.1-1.3-8.6c-3.4-22.5-3.4-22.5-6.6-22.8l-2.8-.4.6 4.9c.4 2.6.8 7.3 1 10.3.2 3 .7 8.3 1.1 11.6l.7 6.2-8.7 1.2c-9.6 1.4-10.3 1.1-10.6-4-.5-8.9-1.2-15.2-4.4-37.8-1.9-13.9-3.5-26.3-3.5-27.7 0-1.9.6-2.5 3.3-3 15.4-2.7 28.5-3.2 32.7-1zm193.5 9.7c3.8 1.1 7.4 2.5 7.9 2.9.5.4-.4 6.2-1.9 13.1-1.6 6.8-2.9 13.6-3.1 15.3-.2 1.6-.7 5-1.3 7.5-.6 2.5-1.1 5.2-1.1 5.9 0 2.2 1.9 0 2.5-2.7.2-1.2 2.3-6.3 4.5-11.4 2.3-5.1 4.3-9.9 4.5-10.8.6-2.8 6.5-14 7.5-14 1.7 0 16.9 5.1 17.3 5.8.2.4-1.3 8-3.3 17-2.1 8.9-4 18.8-4.4 22l-.6 5.7 4.1-9.5c2.2-5.2 4.9-11.5 5.8-14 1.5-3.8 7.9-17.8 8.7-18.8.2-.3 15.6 4.7 16.2 5.3.4.3-10.3 26.5-13 31.9-1.1 2.1-2.1 4.6-2.3 5.5-.2.9-2.4 6.2-4.9 11.9-2.5 5.6-4.6 10.6-4.6 11.1s-.7 2.2-1.7 3.8l-1.6 2.9-5.6-1.2c-3.1-.6-8.1-2-11.1-3l-5.5-1.9.1-5.1c.1-2.8.9-9.8 1.9-15.6.9-5.8 1.5-11.3 1.3-12.4-.2-1-3.4 4.8-7.6 13.7-8.3 17.7-6.6 16.8-20.9 12.2-6-1.9-8.3-3.1-8.3-4.3 0-.9 1.1-7.7 2.5-15.1 1.4-7.4 2.5-14.5 2.5-15.8 0-3.7 7.1-40.1 7.8-40.1.4 0 3.8 1 7.7 2.2zM586.8 162c3.5 8 6.5 15.2 6.7 16 .1.8 2.3 6.1 4.8 11.7 2.5 5.7 4.4 10.3 4.2 10.3-.2 0 .9 2.9 2.6 6.5 1.6 3.5 2.9 7 2.9 7.8 0 .8-3.2 2.1-8.6 3.4l-8.5 2.1-.9-2.2c-3.4-9.1-3.9-9.7-6.7-9.4-2.8.3-2.8.3-2.5 7.5l.2 7.2-3.7.7c-2.1.3-6.3 1.2-9.3 2-3 .7-5.5 1.2-5.6 1.1-.4-.5-5.4-44.2-6.4-56.2-.6-7.2-1.2-13.8-1.3-14.9-.2-1.5 1.7-2.4 11.3-5.2 6.3-1.8 12.2-3.2 13-3.1.9.1 4 6.1 7.8 14.7zM530 174.5c1.6 6.6 3.4 13.1 3.9 14.5 1.7 4.5 5.3 17 5.6 19.3.2 2.3 2.7 11.3 5.1 18.6 1.7 4.9 1.5 5.2-4.1 7-2.2.8-5.8 2.2-8 3.3-8.9 4.3-7.8 4.8-14.1-6-7.9-13.4-12.5-20.4-13.1-19.9-.2.3 1.2 6.7 3.2 14.2 4.5 16.7 4.9 20.1 2.6 20.9-.9.2-5.6 1.9-10.5 3.6-4.9 1.7-9.3 2.7-9.7 2.3-.4-.4-2.8-4.8-5.3-9.6-2.6-4.9-5.8-10.5-7.1-12.5-1.4-2-2.5-4.1-2.5-4.7 0-.5-1.6-3.7-3.6-7-4.8-7.9-15.7-28.6-15.2-29 .6-.5 11-5.6 13.3-6.5 2.3-.9 2.7-.3 9.6 13.8 6.9 14 12.9 24.6 13.5 23.9.2-.2-1.4-5.9-3.6-12.8-3.5-11-7-25.1-7-28 0-1.4 16.2-9.1 17.2-8.1.4.4 5.1 9.4 10.3 20 5.3 10.6 10 19.2 10.5 19.2.9 0-.6-5.7-5.5-20.5-1.4-4.4-2.8-9.7-3.1-11.8-.3-2.1-.9-4.9-1.4-6.3-1.7-4.3-1.2-5 4.8-7.7 6.5-2.9 9.4-3.6 10.4-2.7.4.3 2.1 6 3.8 12.5zm239.3-1.3l10.7 1.1-.6 3.6c-1.2 7.9-1.6 9.1-2.7 9.1-1.4 0-13.9-1.7-18.4-2.5-3.2-.6-3.3-.7-3.3-5.9 0-7.5-1.1-7.1 14.3-5.4zm166.3 7.2c3.2 1.3 9.4 4 13.6 6.1l7.7 3.7-1.5 3.6c-.9 2.1-1.7 4.6-2 5.6-.6 3.4-1.7 3.5-7.4 1.1-3-1.3-5.8-2.1-6.1-1.9-1.6 1-5 9.9-4.5 11.8.3 1.4 2.2 2.9 5.1 4.2l4.6 1.9-2.8 5.5c-1.5 3-2.8 5.7-2.9 5.8-.1.2-2.4-.6-4.9-1.7-2.6-1.2-5.1-2.1-5.6-2.1-.9 0-6.9 12.4-6.9 14.2 0 .5 2.5 2 5.5 3.4s5.7 3 6 3.5c.5.7-5 11.9-5.9 11.9-.6 0-19-8.2-23.5-10.5-2.8-1.4-5.1-3-5.1-3.6 0-.6 1.6-4.3 3.6-8.2 2-4 4.2-8.8 4.9-10.7.8-1.9 4.7-10.7 8.7-19.5 4.1-8.8 8.5-18.4 9.8-21.3 1.3-2.8 2.6-5.2 3-5.2.3 0 3.3 1.1 6.6 2.4zm53.1 26l5.3 2.6-3.2 6.3c-1.8 3.4-3.7 6.9-4.4 7.7-.7.8-2.9 4.9-5 9s-5.3 9.8-7.1 12.7c-1.8 2.9-3.3 5.6-3.3 6 0 .5-1.9 4-4.2 7.9-2.4 3.9-5.2 8.7-6.2 10.7-1.1 2-2.2 3.7-2.5 3.7-.3 0-3.7-1.7-7.6-3.8-8.4-4.5-8.5-5.1-2.1-16.2 2.4-4.1 8.3-14.7 13.1-23.5 4.8-8.8 10.5-19 12.7-22.7l4-6.8 2.7 1.9c1.4 1 5 3 7.8 4.5zm-552.1-.2c1.6 2.4 3.4 5.2 4 6.3 3.4 6.2 10.9 19.1 11.5 19.5.3.3 3.2 5.1 6.5 10.8 3.2 5.7 7.1 12.4 8.6 15 1.5 2.6 2.8 5.2 2.8 5.8 0 1-12.2 9.4-13.7 9.4-1.4 0-5.8-6.3-11.3-16.2-4.7-8.4-5.6-9.5-7.3-8.7-3.3 1.8-2.9 3.5 2.5 12.9 9 15.5 9.4 16.2 8.2 16.7-.6.2-4.1 2.4-7.9 4.8l-6.8 4.5-6.5-11.3c-3.6-6.1-8-13.5-9.7-16.2-1.8-2.8-4.9-7.9-6.9-11.5-2.1-3.6-5.9-10.3-8.7-14.8-2.7-4.6-4.9-8.7-4.9-9.2 0-.8 14.2-10 15.4-10 .3 0 .6.5.6 1.1 0 .6 2 4.1 4.4 7.8 2.4 3.6 5.1 8.1 6 9.8 1.9 3.8 2.3 3.9 5.4 1.7l2.2-1.5-2.7-4.7c-1.5-2.6-3-4.9-3.3-5.2-.9-.7-7.1-12.3-6.7-12.6.6-.6 14.3-8.3 14.8-8.3.4-.1 1.9 1.8 3.5 4.1zm321.9 22.2c50 7 81.6 14.8 119.5 29.3 8 3.1 17.9 7.2 22 9.1 14.1 6.5 30.5 14.6 36 17.7 3 1.8 8.9 5.2 13 7.5 10.2 5.9 35.1 22.3 41.5 27.4 2.9 2.2 9 7 13.6 10.6 12.6 9.7 28 23.2 39.9 35 16.7 16.7 24.5 25.7 47.4 55.1 5.8 7.5 21.6 31.4 27.6 41.9 2.3 4.1 5.7 10 7.5 13 6.3 10.8 18.8 37.4 24.6 52.4 2.2 5.5 4.4 11 4.9 12.1 4.7 9.6 21.6 71.5 22.4 81.7.2 2.4 1.5 12.2 2.9 21.8 6.4 42.8 6.4 81.5.1 125-1.4 9.6-2.8 19.5-3 22-.6 6.6-9 40.3-14.1 57-9.9 32.3-26.1 69.6-42.1 97-3.1 5.2-6 10.4-6.6 11.5-.6 1.1-6 9.2-11.9 18-28.9 42.8-62.8 79.4-101.2 108.9-5.5 4.2-10.9 8.5-12 9.5-3.6 3.3-28.3 19.4-42.9 27.9-51.9 30.4-110.8 51.3-167.6 59.7-53.7 7.8-92.1 8.2-138.5 1.4-7.7-1.2-17.1-2.5-20.9-3-16.6-2.1-63.6-15.3-86.1-24.1-23.1-9-50.9-22.3-68.6-32.8-5.5-3.3-10.2-6-10.4-6-.1 0-7.6-5-16.6-11-45-30.2-79.5-62.4-112.4-104.6-7.5-9.6-28.2-39.5-31.1-44.9-.6-1.1-3.8-6.7-7.1-12.5-7.4-13-16.8-31.6-21.8-43.5-2.1-5-4.5-9.9-5.2-11-.7-1.1-1.3-2.6-1.3-3.5 0-.8-1.5-5.2-3.4-9.7-8.3-20.1-21.2-67.8-24-88.8-.8-6.1-2.2-15.4-3-20.7-3-19.4-3.9-38.4-3.3-69.2.6-29.1 1.8-43.1 5.7-64.7.6-3.4 1.2-7.2 1.2-8.3 0-3 1.5-10 5.9-28.6 11.1-45.9 26.5-84.8 50.3-126.5 5-8.8 9.6-16.6 10.3-17.3.7-.7 2.5-3.4 4-6 3.5-6.1 13.3-20.4 14.8-21.7.7-.6 4.5-5.5 8.6-11 23.6-31.9 57-64.7 91.4-90 2.2-1.6 4.2-3.2 4.5-3.6 1.1-1.5 29.5-20 38.2-24.9 5.1-2.9 10.9-6.3 12.8-7.5 1.9-1.3 10.3-5.5 18.5-9.5 8.3-4 16.2-7.9 17.7-8.6 1.5-.8 8.4-3.7 15.5-6.5 7-2.7 14.2-5.6 15.8-6.3 1.7-.8 4.1-1.7 5.5-2 1.4-.4 8.8-2.7 16.5-5.1 16.5-5.2 38.5-11 48.2-12.5 3.7-.7 10.2-1.8 14.3-2.5 6.8-1.3 32.8-4.8 42.5-5.9 2.2-.2 20.9-.2 41.5-.1 27 .2 40.6.8 48.5 1.9zm270.5 2.2c7.8 4.5 13.1 11 13.7 16.7.3 3.4-.2 5.2-2.7 9.4-1.7 2.9-3.6 5.3-4.4 5.3-1 0-11.1-6.4-13.5-8.6-.2-.1.6-1.8 1.8-3.7 2.9-4.8 2.8-7.7-.4-7.7-1.3 0-3.3 1-4.4 2.1-3.5 3.8-3.5 6.9.3 15.5 5.4 12.5 6.1 15.7 4.7 20.6-1.6 5.1-6.5 12.1-12.2 17.3-3.9 3.5-4.5 3.7-8.8 3.2-11-1.4-22.4-10.5-23.6-19-.8-5.3.4-9.5 4.5-16.1l3-4.6 7 4.6c7 4.7 7.9 5.7 6 6.9-1.7 1.1-5 8.3-5 11 0 2 .5 2.5 2.5 2.5 1.8 0 3.4-1.2 5.6-4.3 3.8-5.2 3.6-7.4-1.5-20.4-2-5.1-3.6-10.5-3.6-12.1 0-6.5 10.8-21.4 16.3-22.5 4-.9 8.7.4 14.7 3.9zm-649.8 16.9c3 2 13 13.1 14 15.7.3.7-12.8 10.8-14 10.8-.4 0-3.1-3.2-6.1-7-2.9-3.9-5.9-7-6.6-7-2.5 0-4.5 1.2-4.5 2.7 0 1.5 7 12.2 9.9 15 .9 1 5 6.2 9.1 11.6 8.6 11.5 11.6 14.3 13.7 12.5 2.1-1.7.9-6.2-2.9-11.1-1.8-2.3-3.6-4.5-4-4.8-.5-.3.2-1.4 1.4-2.5 3-2.6 12.4-9.4 13.1-9.4 1 0 9.5 14.4 10.2 17.3 2 7.7-6.5 20-16.3 23.7-6.5 2.5-11.8 2.5-15.8.1-4.8-2.9-19.3-19.9-28.2-33-5.3-7.7-5.7-8.7-5.7-14.1 0-4.9.5-6.5 3-10.1 4.1-5.8 9.4-9.8 15.7-12 6-2.1 8.7-1.8 14 1.6zm696.1 19.1c9.8 3.3 19.6 15.7 18.4 23.1-.6 3.2-7.1 13.3-8.5 13.3-.4 0-3.5-2.5-6.9-5.4l-6.2-5.4 3.5-4.5c2-2.5 3.3-5.1 2.9-5.6-1.1-1.8-5.8-1.2-8.2 1.1-2.9 2.7-3 6.8-.3 18.3 2.3 10 2.4 12.3.8 17.8-1.5 4.9-10.3 14.8-15.4 17.2-3.1 1.4-4.2 1.5-8.6.4-4.2-1-6.3-2.4-12.4-8.3-5.5-5.4-7.4-8-7.9-10.8-.8-4.1.1-9.2 1.8-11.1.7-.6 2.7-3.1 4.5-5.5 1.9-2.3 3.9-4.2 4.6-4.2.7 0 3.8 2.3 6.9 5.2l5.6 5.2-3.4 3.8c-4.3 4.7-5.4 8.4-3.1 10.6 1.5 1.5 1.8 1.4 4.3-.4 6-4.5 6.6-8.7 3.4-24.7-2-10.1-1.8-12.6 1.2-18.3 3-5.7 12.6-13.4 16.8-13.4.8 0 3.6.7 6.2 1.6zm-746.9 25.6c3.1 2.3 5.6 4.6 5.6 5.2 0 .7-2.6 3.7-5.8 6.9l-5.8 5.7-2.9-3c-3.7-3.9-7.5-4.1-7.5-.4 0 2.7 5.1 8.4 7.5 8.4.7 0 4.9-.7 9.2-1.5 15.8-3 22.3-1.4 30.8 7.6 8.6 9.2 9.1 14.6 2 24.1-6.9 9.3-17.2 14.2-24.2 11.3-3.1-1.3-12.2-8.7-13.1-10.6-.1-.3 2.4-3.3 5.7-6.7l5.9-6 3.8 4c5.4 5.5 7.1 6.3 9.4 4.3 2.4-2.2 1.6-4.8-2.8-8.6-3.3-3-3.8-3.1-9.6-2.5-3.4.4-10.4.9-15.6 1.2l-9.6.6-4.4-3.4c-2.4-1.8-5.9-5.3-7.7-7.7-7.4-9.6-2.5-22.5 11.7-30.5 6.7-3.8 10.6-3.4 17.4 1.6zM528.8 1179c23.9 7.7 28.9 14.1 23.1 29.4-2.3 6.3-5.8 9.6-10 9.6-3.7 0-3.7 1.3 0 3.9 1.6 1.1 3.1 3.1 3.3 4.4 1.1 5.8-6 23.8-10.8 27.6-2.2 1.7-3.7 2.1-6.2 1.7-4-.6-23.3-6.9-29.6-9.5l-4.6-2 3.6-9.8c2-5.4 4.4-12.3 5.4-15.4.9-3.1 3.3-9.8 5.3-15 1.9-5.2 4.9-13.6 6.7-18.7 1.8-5 3.5-9.2 3.9-9.2.4 0 4.8 1.3 9.9 3zm344.1 13.7c3.1 3.5 4.8 6.7 6.7 13.2 1.5 4.7 4.4 14.4 6.6 21.5 4.4 14 4.8 17.8 2.5 22.2-7.4 14.2-31.3 18-38.5 6.2-4.2-6.9-4-7.3 4-9.7 4-1.1 7.8-2.1 8.4-2.1.6 0 1.7 1.5 2.5 3.2 1.1 2.7 2 3.3 4.4 3.3 2.8 0 3-.3 3-3.5-.1-5.3-2.4-13-4-13.7-.9-.3-2.4.5-3.6 2.1-4.7 6-15.5 5.6-20.3-.7-4-5.2-8.6-20.4-8.6-28.3 0-6.7 0-6.8 4.6-11.2 6.3-6 9.4-7.1 19.6-7.2h8.6l4.1 4.7zm-284.1 4.4c3.4.6 6.4 1.4 6.6 1.8.4.7-.4 5.2-3.4 19.1-.5 2.5-2.4 9.7-4 16-1.7 6.3-3.3 12.9-3.5 14.5-.2 1.7-1.5 7.1-2.8 12-2 7.4-2.8 9-4.3 8.9-4.3-.3-14.8-2.4-15.5-3.1-.8-.8.9-8.4 8.8-39.8 2.5-9.9 4.7-19.2 4.8-20.7.2-1.5.9-4.6 1.6-6.8 1.1-3.5 1.6-4 3.3-3.6 1.2.3 4.9 1.1 8.4 1.7zm228.2 6.8c.6 2.5.9 16.2.8 37.3l-.3 33.3-5.5 1.2c-3 .6-7 1.2-8.9 1.2l-3.3.1.7-30.9.7-30.9-6.3 1.4c-11.1 2.3-11.5 2.2-12.3-3.7-.4-2.9-.3-5.5.1-6 .9-.8 27.3-6.6 31-6.8 1.8-.1 2.4.7 3.3 3.8zm-182 5c0 1.4-1.3 10.5-2.9 20.1-1.6 9.6-2.9 18.2-2.9 19 0 .8-.3 5-.7 9.2-.8 8.5-1.1 8.2 6.5 9 2.4.3 2.5.6 2.3 6.2-.1 3.3-.7 6.4-1.2 6.9-.6.6-4.6.4-11.5-.7-5.7-.9-11.7-1.6-13.3-1.6-5.1 0-5.2-.4-2.7-16.5 1.3-8.3 2.4-16.4 2.5-18 .1-1.7 1.5-10.9 3-20.7 1.6-9.7 2.9-17.8 2.9-18 0-.3 4.1.2 9 1 8.7 1.4 9 1.6 9 4.1zm129.9 5.8c-1.1 1.2-1 1.7.4 2.4 1.5.9 1.9 2.3 3.1 11.2l.5 3.8-6.2-.3-6.2-.3-.3-7.2-.3-7.2 4.8-4.8 4.7-4.8.4 2.8c.2 1.6-.2 3.5-.9 4.4zm-84.3-3.5c.4.5.6 6.1.5 12.5-.2 8.6.1 11.5.9 10.7.6-.6 1.3-2.3 1.6-3.9.3-1.5 1.1-3.9 1.8-5.4.7-1.4 2.1-4.9 3-7.7 1.6-4.9 1.9-5.2 5.8-5.7 2.3-.3 6.3-.3 8.9 0l4.7.5-3.3 8.7c-1.8 4.7-4.6 12-6.1 16.1l-2.7 7.4 2.8 11.4c1.6 6.3 3 12.2 3 13.1.1.9 1 4.9 2 8.9s1.5 7.5 1.3 7.8c-.3.3-4.6.2-9.6-.2l-9.1-.7-1.6-7.2c-.9-4-1.5-7.6-1.3-8.1.1-.5-.4-4.2-1.2-8.3-1.7-9.1-2.8-7.3-2.9 5-.1 4.7-.4 10.7-.7 13.3l-.7 4.6h-18.8l.6-7.3c.3-3.9.9-18.2 1.5-31.7s1.3-26.9 1.6-29.8l.6-5.4 8.3.4c4.6.1 8.7.6 9.1 1z"/><path d="M633.9 150.5c-.8.7 1.2 13.8 2.2 14.9.5.5 1.4.4 2.4-.4 1.8-1.5 2-8.5.2-12-1.2-2.4-3.7-3.7-4.8-2.5zM573 172.6c0 .5.7 5.6 1.5 11.4.8 5.8 1.5 10.8 1.5 11.2 0 1.1 4.8 1 5.4 0 .3-.5-1.3-5.7-3.4-11.7-3.7-10.2-5-13.1-5-10.9zM684.5 250.1C586.3 253.9 491.2 291 413 355.8c-13.5 11.2-44.3 41.8-55.1 54.7-63.3 75.5-99.9 165.2-107 262.2-1.5 19.9-.6 66.2 1.5 83.8 11.6 95.2 49.7 181.1 111.2 250.5 59.1 66.8 134 114.1 218.8 138.1 23.3 6.6 51.4 11.9 79.6 15.1 15.2 1.7 71.7 1.7 87 0 39.9-4.4 76.3-12.5 110-24.5 150.5-53.6 262-182 293.9-338.7 6-29.4 8-47.8 8.8-80.6.9-37.6-1.4-64.3-8.7-100.4-17.8-88.9-59.6-167.2-123.9-231.9-29.9-30.1-59.5-52.9-96.1-74-59.7-34.6-134.1-56.9-198-59.6-28-1.1-32-1.2-50.5-.4zm73.3 22.9c119.8 15 224.7 75.8 297.4 172.5 46.4 61.7 75 135.3 84.2 216 2.3 20.4 1.6 79.2-1.2 98.5-3.3 22.5-5.9 36.1-10.4 53.4-41.4 162.5-172.9 287-337.3 319.5-33.6 6.6-56 8.5-93.4 7.8-37.9-.7-66.4-4.5-101.6-13.7-76.7-20.1-144.4-59.4-200-116.1-22.8-23.3-37.7-41.6-53.9-66.3-38.6-59-61.4-123.3-69.7-196.6-2-17.5-1.8-69.8.4-88 6.9-57.3 21.3-105.3 45.8-152.8 57.5-111.5 158.6-192.5 279.3-223.6 22.6-5.9 56.4-11.3 80.6-13 15-1 64.1.4 79.8 2.4z"/><path d="M759.3 417.3c-1.3 1.8-2.3 3.9-2.3 4.5 0 1.4-2.2 2.4-8.7 4.1-2.7.8-5.1 2.3-6.4 4.1-2.2 2.8-2.2 2.9-4.8 1-1.4-1-5.2-2.1-8.4-2.4-3.2-.4-8-1.8-10.7-3.1-2.7-1.4-5.8-2.5-7-2.5-1.8 0-2 .6-2 7.2 0 4.3-.7 9.2-1.7 12-1.9 5.3-1.3 6.7 3.9 9.4 2.5 1.3 3.1 1.3 5.7-.1 1.7-.8 3.3-1.9 3.6-2.5 1.1-1.8 4.1-1.1 5.3 1.2 1.5 2.9 3.1 13.7 2.4 15.8-.2.8-2.1 3.2-4 5.2-3.2 3.4-4.2 3.8-10.4 4.4-4.6.4-7.7 1.3-9.5 2.7-5.6 4.4-8 15.7-4.9 23.2 1.4 3.4 5.9 6.1 16.9 10.4 2.2.9 2.7 1.7 2.7 4.4 0 6.5 4.4 7.5 9.7 2.2 1.9-1.9 3.8-3.5 4.2-3.5.4 0 1.8 1.1 3.1 2.5 3 3.2 4 3.1 7.5-.5l2.9-3.1 3.4 3.8 3.5 3.7 2.1-2.7c2.8-3.5 4.2-3.4 6.1.3 1.5 2.9 2.1 10.1.9 11.3-.4.3-2.1 0-3.9-.8-1.8-.7-6.8-2.1-11.1-3-7.3-1.7-8.5-1.7-23.8 0-20.2 2.2-23.6 1.6-36.7-6.1-10.1-6-13.9-7.2-18.1-5.5-2.2.8-2.8 1.7-2.8 4 0 3.8 5.3 8.5 16.4 14.3l8.1 4.3 15.5-.2c10.9-.1 17-.6 20.5-1.7 6.7-2.1 10.3-2 15.9.5 3.9 1.7 4.5 2.3 3.5 3.5-1.4 1.7-3.2 1.8-7.5.2-2.9-1-3.6-.9-5.5.8-1.2 1-3.3 1.9-4.7 1.9-3.4 0-5.5 3.8-4 7 .8 1.8.6 2.9-1.2 5.2-2.9 4.1-1.9 8 2.6 9.9 1.8.8 4.3 1.4 5.4 1.4 2.5 0 2.6 1.2.3 3.2-3 2.5-4.7 2.7-13.8 1.1l-8.7-1.5-8.2 3.2c-7.6 3-8.6 3.2-16.5 2.6-4.6-.3-9.1-1-9.9-1.5-.9-.5-2.8-3.8-4.2-7.2-2.8-6.9-5-8.8-5-4.2 0 4.9 3 15.7 5 18.5 1.1 1.5 2 3.2 2 3.7 0 2.5-9.1 4.3-10.5 2.1-.3-.6-1.5-1-2.5-1-2.7 0-13.8-4.9-19-8.4-6-4-13-10.6-13-12.1 0-.8 2.5-1.5 7.1-1.9 8-.8 10.2-2.3 11.8-8.3 1.7-5.8 1.4-14.9-.5-16.7-.8-.9-1.6-1.6-1.7-1.7-.1 0-10.4-.4-22.9-.9-15.5-.5-23.3-1.1-24.3-2-2.4-2-2.9-7.4-1-12.4 2.2-5.6 1.5-9.9-2.5-15.7-1.6-2.4-3-4.8-3-5.3s1.4-3.6 3-7c7.6-15.4 6.3-34.4-3.2-48.6-4.4-6.7-9-10.7-16.9-14.7-4.7-2.3-6.6-2.7-14.4-2.7-7.6-.1-9.8.3-14.5 2.5-7 3.3-11.3 6.9-16.7 14.2-5.8 8-8.3 16.4-8.3 28.1 0 10.2 1.5 16.3 6 24l3 5.3-3.5 3.3c-7 6.8-8.2 16.7-2.9 24.6 1.4 2 2.2 3.9 1.9 4.3-.4.3-14.2.6-30.7.6h-30.1l-2 3.8c-2.6 5.1-2.7 13.2-.3 17 4.1 6.1 4.7 6.2 43.4 6.5l35.2.3v56.8c0 62.1.4 58.1-5.5 58.1-3.7 0-13.3 3.9-15.5 6.3-2.5 2.6-2.8 14.2-.6 17.3 1.4 1.8 1.5 1.8 2.2-1.1 1.2-5.3 2.5-5.9 4.7-2.3 1.1 1.8 2.6 3.7 3.3 4.1 1.9 1.1.8 2.7-1.7 2.7-4.1 0-10.7 4.5-19.1 13.2-5.7 5.8-8.8 9.7-8.8 11.1 0 1.2 1.2 4.7 2.6 7.7 2.1 4.6 2.7 5.2 3.5 3.7.6-.9.7-2.2.4-2.7-1.1-1.8 1.4-4.8 5-6 3.3-1.1 3.6-1 6.6 2.4 1.9 2.3 4 3.6 5.5 3.6 2.6 0 13.8-5.3 14.9-7 .3-.5 1-1 1.6-1 1.7 0 .9 2.7-2.1 6.5-1.6 2-3.2 5.4-3.5 7.4-.3 2-1.1 6.3-1.6 9.6-1.3 7.4-.2 10.7 3.9 12.4 2.9 1.2 3.1 1.6 3.8 8.9.4 4.3.4 24.3 0 44.7-.3 20.3-.6 53.6-.7 73.8 0 20.2-.2 37.4-.6 38.2-.3.8-1.8 1.5-3.3 1.5-4.6 0-8.1-5.3-22-33.1-12.1-24.3-19-41.5-19-47.3 0-1.8 2.2-4.4 8-9.6 8.5-7.7 10.6-11.6 9.5-17.3-1-4.7-31.4-62.9-35.8-68.5-.6-.8-3.2-2.4-5.8-3.7-5.7-2.9-7-2.2-9.2 5-2.4 7.5-6.3 31.5-8.8 53.1-2.1 18.6-2.1 19.2-.4 24.8 2.5 7.9 6.3 12.7 13.3 17 5.7 3.4 6.1 4 7.1 8.8 2 9 21.3 54.3 27.9 65.3 5.5 9.3 14.9 23.2 21.5 31.9 6.8 9 29.3 32.9 31.3 33.4.8.2 6.2-2.9 12.1-7 8.3-5.6 15.2-11.7 29.3-25.8 21.3-21.4 30-31.4 35-40.3 2.8-4.9 4.1-6.3 6.3-6.5 2.2-.3 2.9.2 3.8 2.5 1 2.7 6.6 9.3 8 9.3.3 0 .9-1.9 1.3-4.2.5-2.9 1.8-5.2 4.5-8 4.4-4.4 7.7-5.2 6.7-1.6-.4 1.3-1 5-1.3 8.3l-.5 6.1 4.1 3.7c5.9 5.3 7 5 6.4-2.1-.3-3.9-.1-6.3.9-7.5 1.4-1.9 8.8-4.8 10-4 .5.2.8 2.7.8 5.4s.6 6.4 1.4 8.2c2.5 6 16 16.6 21.4 16.7 2.6 0 2.3-2.9-.8-7.1-3.4-4.9-5.5-14.3-3.6-15.7 2.1-1.7 14.4-8.2 15.4-8.2.5 0 1.5 1.8 2.2 4.1 2 6.1 5.6 9.4 11.8 10.9 7 1.6 8.4.4 4.4-4.1-4.1-4.8-5.2-7.2-5.2-11.6.1-5.2 3-11.1 7.9-15.7 6.7-6.2 7.5-8.4 7.7-22.6.1-6.9.2-14 .3-15.9.1-2.7 1.5-4.8 7.9-11.5 4.3-4.4 11.7-12.6 16.4-18.1 4.7-5.5 9.6-11 10.9-12.1 2.9-2.6 7.8-3.6 13-2.8l3.9.7v5.2c0 6.8-1.7 24.5-3.1 31.2-.7 3.5-3.3 8.8-7.9 16.1-12.8 20.6-13 22.2-1.3 16.5 7.4-3.7 13.9-9.5 16.9-15.4 1.3-2.7 2.8-4.9 3.3-4.9 1.5 0 8.6 5.7 12.9 10.3l4.2 4.7v10.7c0 11.6-1.4 26.4-3.1 32.6-1 3.8-1.1 3.9-4.7 3.2-2-.3-6.7-2.4-10.4-4.5-8.7-4.9-13.1-6.4-17.7-5.6-2 .3-5 0-6.8-.6-2.6-1-3.9-.8-7.3.7-6.8 3.1-11.8 9.4-9.4 11.8.4.3 2.4-.3 4.5-1.4 3.1-1.5 4.4-1.7 6-.8 1.7.9 2 1.7 1.5 4.3-.6 3-.2 3.7 3.9 7.5l4.5 4.1h9.5c10.7 0 11 .3 6.9 6.4-2.5 3.7-2.8 3.8-6.8 3.2-8.5-1.3-17.5-1.9-19.8-1.3-1.7.5-3.5 2.5-5.6 6.4-1.7 3.2-4.2 6.9-5.7 8.3-5.1 4.8-6.7 8.5-6 13.7.8 6.5 3.4 13.5 4.8 13 1-.3 1.5-1.8 3.3-10.5l.4-2.2 2.8 1.9c3.5 2.6 14.7 5.4 18.2 4.6 3.9-.9 6.3-3.9 6.9-8.8l.6-4.2 8.8-2.1c4.8-1.2 10.1-2.4 11.8-2.8l2.9-.6v5.6c0 4.8-.4 6.1-3 9-1.6 1.8-3.2 5.1-3.5 7.1-.4 2.1-1.2 4.9-1.8 6.2-1.7 3.4-1.3 10 .8 14l1.8 3.5 1.6-2.2c.9-1.1 2.4-3.3 3.4-4.7 2-2.8 4.4-3.1 11-1.3 4 1 4.7.9 7.6-1.1 2.6-1.9 8.1-9.5 8.1-11.3 0-.4-1.6-2.5-3.6-4.9-4.3-5.2-4-7.4 1.9-13.9 2.3-2.5 5.9-6.5 7.9-8.8 2-2.3 4.4-4.2 5.3-4.2.9 0 3.2 1.2 5.1 2.7 6.8 5.1 18.5 3.8 21.4-2.5.6-1.5 1.4-5.1 1.7-8 .6-5.1.6-5.2 3.9-5.2 1.8 0 4.5.5 5.9 1.2 4 1.8 5.2-.2 2.9-4.9-2.9-5.9-5-6.5-19.6-5.9-12 .4-12.8.3-12.8-1.4 0-2.5 1.8-3.5 5.5-3.1 3.8.3 5.5-2.7 5.5-9.4 0-2.4.4-4.6.8-4.9.5-.3 3.3 1 6.3 2.8 8.9 5.6 13.5 6.3 21.2 3.4 3.7-1.4 3.4-2.3-1.7-4.2-2.6-1-6.3-3.7-9-6.6-6.1-6.6-6.1-8.8.2-5.6 3.9 1.9 16.2 2.8 22.2 1.5 9.7-2.1 23.3-14.9 15.8-14.9-1.3 0-4.3.7-6.8 1.6-6.1 2.2-13.3 1.3-20.9-2.5-3.3-1.7-6.1-3.5-6.1-4s4.4-1.1 9.8-1.3c8.9-.3 10.4-.6 18-4.2 9.1-4.3 12.6-7.7 14.1-13.4 2.9-10.6 1.2-11.4-7.4-3.1l-6.5 6.2-8.2-.2c-4.6-.1-13.9-1.1-20.8-2.2-11.4-1.8-12.8-2.2-15.8-5.2-4-3.8-11.3-16-14.8-24.7l-2.6-6.3 3.2-12.6c3.9-15.4 8.8-32.9 10-35.7.8-2 1.7-2.2 14.2-2.6 14.3-.4 15.1-.7 23.4-6.8 7.2-5.4 9.7-11.1 12.4-28.5 3.3-21.7 6.7-34.6 13.5-52 9.5-24.2 10.3-27.1 14.1-53.5 3.9-27.4 4.7-31.4 8.1-38.5 2.4-5.3 2.9-8.5 1.4-8.5-1.9 0-14.3 20.1-16.2 26-1 3.4-3 12-4.3 19.3-1.4 7.3-2.8 14-3.2 15-1.3 3.5-3.7 1.1-9.4-9.3-3.1-5.8-7.5-13.4-9.8-16.9-2.3-3.5-4.2-7.2-4.2-8.2 0-1 1.2-4.9 2.6-8.6C922.3 589.6 925 578 926 560c.5-8.5 1.2-19 1.6-23.3l.7-7.7 6.3-5c3.9-3.2 7-6.6 8.2-9.3 2.5-5 4.8-18.6 3.8-21.3-.7-1.8-.8-1.7-2.1.6-.8 1.4-1.4 3.5-1.5 4.7 0 1.4-.6 2.3-1.5 2.3-1.9 0-1.9-1.7.2-17.1 1.5-11.2 1.5-13.3.2-18-1.1-4.2-1.8-5.4-3.4-5.4-1.8 0-2 .9-2.6 11.8-.6 9.9-1 12.1-2.5 13.2-4 3.1-4.1 3-1.4-13 2.2-13.1 1.7-19.3-2-27.9-2.1-5.1-3.3-6.1-4.9-4.2-.8 1-.8 3.4 0 9.2 1.4 10.2.6 21.9-1.7 24.5-3.5 3.9-4.1 2.5-4.6-10.5-.4-10.9-.8-13.1-3.2-17.9-3-6.2-10.2-13.5-11.8-11.9-.6.6-.8 3.2-.6 5.9 3.6 37.7 3.7 34.2-1.3 42.1-1.7 2.6-2.1 4.8-2.1 11.6 0 12.2 3.5 23.1 10.3 31.7 2.9 3.6 2.9 3.9 2.9 17.1 0 18.3-1.4 28.1-6.2 42.8-4.7 14.5-6.5 18.3-8 17.4-1.7-1.1-11.4-22.2-14.1-30.9-2.4-7.8-4.9-24.6-6.2-41.5l-.7-8.5 4.1-4c4.8-4.6 6.3-8.7 9-24.8 1.7-9.8 1.8-11.7.5-21-2-15.4-1.8-29.6.6-36.4 3.3-9.6.4-9.9-8.5-1-5.7 5.8-6.4 6.8-7.8 13.2-.8 3.9-1.8 10.1-2.2 13.9-.5 4.5-1 6.5-1.7 5.8-1.5-1.5-1-16 .7-21.6 1.8-6.1 1.9-7.6.2-7.6-1.5 0-5.9 5.2-10 11.7-3 4.7-4.3 5.2-6.3 2.6-1.1-1.6-1.7-.8-5.3 6.7-5.8 12-5.4 16.6 3 33.4 4.1 8.3 4.7 10.6 2.6 10.6-1.6 0-5.4-4-9.3-10l-2.9-4.5-.3 5.3c-.5 8.2 2.2 16 7.1 20.4 2.2 2.1 4.5 3.8 5.1 3.8.6.1 2 .9 3.2 1.8 1.8 1.6 2.2 3.3 2.8 13.7.8 12.1 2.8 26.1 4.7 32.5 2.2 7.1 7.4 18.9 15.5 35.2 4.6 9.2 8.4 17.8 8.4 19 0 1.1-2.4 6.2-5.4 11.2-6.8 11.6-9.6 17.1-11.1 22-.7 2.2-1.7 4.2-2.3 4.4-1.4.4-4.5-8.3-8.2-23-3.4-13.3-7.9-23.4-13.6-30.4-5.6-6.8-7.8-5.4-5.4 3.5 3.9 14.3 10.3 43.9 11.9 55.2 3.6 25 8 34 30 61.9 5.9 7.4 8.1 13.7 8.1 22.5 0 10-4.9 14.3-14.9 13.1-9.2-1.1-9.5-1.3-12.8-7.9-1.7-3.4-6.9-11-11.4-16.8-8.8-11.1-23-32.2-31.9-47.4-2.9-5-8.5-13.1-12.5-18-10.9-13.6-10.6-13.1-6.6-16.4 1.9-1.5 3.1-3.3 2.8-3.8-.4-.6-2.7-1.4-5.2-1.7-8.6-1.3-13.3-8.2-12.2-17.7.8-6.4 2.7-12.7 4.1-13.2.6-.2 4.3.1 8.2.6 6.7 1 7.2.9 11.7-1.7 6-3.6 6.3-5.9.6-5-3.6.6-4.4.3-7.4-2.6-7.3-7.1-7.1-13.3.6-20.9l4.9-4.9-1.5-5.8c-2.8-10.6-2-13.4 3.9-13.4 1.2 0 3.1-.7 4.2-1.5 1.8-1.5 1.8-1.6-1-3.9-2.5-2.1-3.1-3.6-4.7-13.2-2.4-14-4-31.7-2.9-32.7.4-.5 1.6-.4 2.7.1 1.1.6 2.5.7 3.3.2 1-.6.4-2.3-3-7.6l-4.3-6.8.7-10.7.7-10.8-4.3-4.3c-2.4-2.5-5.6-5.3-7.2-6.5-2.6-1.8-2.8-2.4-2.2-5.6.4-1.9 1.5-4.6 2.5-5.8 1.6-2 2.1-2.1 3.5-1 3.4 2.8 13.6-.6 13.6-4.6 0-.7-.9-3-2-5-2.4-4.5-2.5-7.4-.5-13.9.8-2.7 1.5-5.2 1.5-5.7 0-1.5-3.7-.6-9 2.2-3.8 1.9-7.7 3-12.5 3.4-4.9.5-7.4 1.2-8.2 2.4-2.3 3-1.5 6 2.3 9.1 4.2 3.5 3.9 4.6-2 7.3s-9.2 2.4-12.7-1c-3.9-4-3.7-5.6 1.1-7 7.4-2.2 8-9.2 1.1-13.5-2.1-1.3-5.3-4.4-7.1-6.8-3.3-4.3-5.9-6.8-6.9-6.8-.3 0-1.6 1.5-2.8 3.3zm-193.8 24.8c13.7 3.8 21.9 22.6 17.1 39.2-.9 3.1-2.1 5.7-2.7 5.7-.6 0-2.9-1.3-5.2-2.9-6.9-4.7-10.4-6.1-14.8-6.1-5.3 0-11.5 3.5-16.2 9.1-2.2 2.7-4 4-4.9 3.6-.8-.3-2.5-3.2-3.7-6.6-1.9-5-2.2-7.5-1.9-14.8.4-9.7 1.8-13.6 7.3-20.1 6.3-7.3 15.1-9.8 25-7.1zm6.4 145.6c1.2 4.2 3.7 8.3 5.2 8.3.5 0 1.5-1.1 2.1-2.5 2.9-6.5 6.2 0 5.6 11.2-.3 5.8-1 9.2-3 13.2-1.5 3-2.5 5.8-2.2 6.3 1.4 2.2 6.3.6 11.3-3.7 2.9-2.5 5.6-4.5 6.1-4.5 1.4 0 2.1 3.5 2.3 10.2.1 5.6-.4 7.3-4.4 15.1l-4.5 8.8-1.9-2.1c-1.1-1.2-2.4-3.5-3-5.3-.5-1.7-1.6-3.2-2.2-3.5-1.8-.5-1.7 9.5.1 12.7 1.7 3 8.1 7.3 17.8 11.9 4.3 2 7.8 4.2 7.8 4.8 0 1.9-6.7 6.5-16.2 11.1-4.9 2.4-10.8 6.1-13.1 8.2-5.2 4.7-8.8 7.1-10.4 7.1-1 0-1.3-8.6-1.3-41.8 0-44.1.8-69.2 2.1-69.2.5 0 1.3 1.7 1.8 3.7zm43 52.4c2.7 7.9.8 11-8.3 12.9-4 .9-5.9.9-8.9-.2-2.2-.7-4-1.7-4-2.1-.1-.5 2.3-1.7 5.3-2.7 4.1-1.3 6.5-3 9.5-6.4 2.2-2.5 4.3-4.6 4.7-4.6.3 0 1.1 1.4 1.7 3.1zm290.5 4.7c5.1 10.1 7 20.3 8.5 43.2l.8 12.5-3.1 6c-2.8 5.4-3.4 6-6 5.8-3.2-.2-9.3-5.6-12.7-11-5-8-6.4-30.3-2.6-41.3 2.7-7.9 10.4-21.3 11.8-20.5.5.4 2 2.7 3.3 5.3zm-184.9 61.7c8.8 6.8 18.4 11.1 35.3 15.5 8.4 2.2 16.2 4.5 17.5 5.1 7.4 4 15.7 13.5 15.7 18.1 0 4.7-10.4 12.8-26.7 21.1l-14.4 7.2-13.7.5-13.7.5-10.7 8.7c-12.7 10.3-16.7 12.5-24.5 13.4-3.2.4-6.9 1.1-8.2 1.6-2.1.8-2.3 1.1-1 2.3.8.8 4.8 3.2 8.9 5.3 8.4 4.4 9.9 6.4 10.7 14.6.8 7.9-.4 13.8-3.8 19-3.4 5.1-14.3 14.6-19.8 17.3-4.4 2-12.1 2.8-19.6 1.8-5-.6-5.6-.9-5.3-2.8.2-1.3 2.9-4.1 6.8-6.9 14.4-10.6 18.7-14.5 19.3-17.7 1.4-6.7-6.7-38.1-15.3-60.1-7.6-19.2-10.6-21.5-17.8-13.6-7.6 8.2-15.8 26.8-27.3 62-5.7 17.5-6.1 16.3 6.1 22 7.7 3.7 8 3.9 8 7.2 0 1.9-.3 3.4-.6 3.4-.4 0-2.1-1.3-4-3-1.8-1.6-5.1-3.2-7.1-3.6-2.1-.4-9.8-3.1-17-6-7.3-3-14.1-5.4-15.1-5.4-1.1 0-4.6 1.3-7.8 3-3.2 1.6-6.2 3-6.6 3-.5 0-.8-18.7-.8-41.5V757l2.3-1c1.2-.5 4-1.2 6.1-1.5 2.7-.4 5.2-1.9 8-4.6 2.3-2.2 5.7-4.7 7.6-5.7 4.5-2.2 8-8.9 8-15.4V724h3.8c4.6 0 7.8 1.7 14.6 7.5 4.8 4 7.6 5.5 7.6 3.9 0-.3-1.2-2.6-2.6-5-1.8-3-2.3-4.9-1.7-5.5.5-.5 4.1-1.2 7.9-1.6 6.6-.5 7.2-.4 14.8 3.6 4.4 2.2 8.2 3.9 8.5 3.6.3-.3-.7-3-2.2-6.1-2.4-4.9-2.5-5.5-1-6.1 2.6-1 13.1 1.6 19.5 4.8 8.5 4.3 9.6 3.1 4.8-5.2-1.7-2.8-2.8-5.4-2.5-5.7.3-.3 6 .4 12.7 1.6 14.8 2.6 34.7 4.7 35.6 3.7.4-.4-.2-1.2-1.2-1.9-4.2-2.4-8.6-6.9-8.6-8.6 0-6.3 2.8-6.4 10.5-.5zM574 747c0 2.2-3.8 6.2-5.2 5.4-.4-.3-.8-2.1-.8-4 0-3.1.2-3.4 3-3.4 2.3 0 3 .4 3 2zm7.2 105.2c.2 3.5 1.2 7.8 2.1 9.7.9 1.9 1.7 3.6 1.7 3.8 0 1.3-5.5-.2-10.7-2.9l-6.3-3.3v-4.8c0-3.5.4-4.7 1.5-4.7.8 0 1.5-.6 1.5-1.4 0-1.8 1.5-2.4 6.1-2.5l3.7-.1.4 6.2zm8.8 35c0 .7-1.8 3.9-4 7.2-2.2 3.2-4 7.1-4 8.6 0 4.6 2.9 11.4 7 16.4 2.2 2.7 4 5.2 4 5.6 0 1.5-9 9-13.9 11.4-2.8 1.4-6.4 2.6-8.1 2.6h-3v-49.2l2.3.6c6.4 1.8 7.2 1.7 11.2-1.3 4.1-3.1 8.5-4 8.5-1.9zM352 648.1c-14.3 2.3-31 14.8-38.2 28.5-5.2 9.9-6.8 16.3-6.8 26.8 0 18.6 7.4 33.9 21.6 44.6 24.5 18.5 58.9 14.4 78.3-9.3 7.7-9.4 11.3-18.9 11.9-31.2.2-5.5-.1-12.7-.7-16-2.9-15.6-14.9-30.9-30.1-38.4-11.6-5.6-22.6-7.1-36-5zm24.1 7.5c3 .9 8 3 11.1 4.6 9.3 4.9 20.3 17.9 22.4 26.3.7 2.8.5 2.7-5.7-2.8-10.7-9.5-22.9-14.7-34.6-14.7-6.5 0-9.3-2.3-9.3-7.6 0-5.7 1.4-7.4 6.4-7.4 2.3 0 6.7.7 9.7 1.6zM354 661c0 3.4.7 7.4 1.5 9 1.4 2.6 1.3 3.1-1 7.2-1.9 3.4-2.5 5.7-2.5 10.9 0 6 .4 7.2 3.5 11.9 2.2 3.3 3.3 6 3 7.1-1 3-6.4 6.9-9.7 6.9-4 0-12-4.4-14.7-8.1-4.1-5.5-5.1-17.4-2.6-30.6 2.3-12.3 2.9-13.1 10.9-16.9 3.9-1.8 8.1-3.3 9.4-3.4 2 0 2.2.4 2.2 6zm-30.1 19.1c-1.8 11.7 0 22.5 5 29.9 2.6 3.9 2.8 4.6 1.6 6.3-3.7 5.4-12.4 7.6-14.5 3.8-.5-1.1-1.4-5.2-2-9.2-1.3-9.2 0-19.9 3.4-26.8 3-6.4 6.7-12.3 7.2-11.8.3.2-.1 3.7-.7 7.8zm63.3.1c5.6 2.8 9.2 5.6 14.5 11.1 8.4 8.9 11.5 14.7 10.6 20-.7 4.6-1.6 5.2-4.6 3.2-1.3-.8-5.1-1.8-8.5-2.1-6.1-.7-6.3-.8-8.1-4.8-3.8-8.8-12.2-12.8-22.3-10.7-6.9 1.4-8.1.9-9.8-4.5-1.4-4.2-.7-8.7 2-13.3l2.1-3.3 8.3.3c7.1.4 9.2.9 15.8 4.1zm-7.8 23.8c3.4 1.3 6.6 6.6 6.6 11.1 0 3.1-.8 4.5-5.7 9.3-3.1 3.2-7.6 6.9-10 8.3-5.2 3-16.4 6.9-25.6 8.9-11.2 2.3-11.8 2.2-18.1-4.7-3.1-3.3-5.6-6.3-5.6-6.7 0-.4 2.1-1.5 4.8-2.4 2.6-1 6.4-3.4 8.5-5.6l3.8-3.9 5.2 1.4c2.8.7 6.7 1 8.5.7 4.1-.8 9.3-5.1 12.3-10.2 3.7-6.2 5-7.2 9-7.2 2.1 0 4.9.4 6.3 1zm23.9 16.2c4 1.5 4.4 4.9 1.3 10.2-3.2 5.5-12.4 14-18.7 17.2-10.9 5.5-26.2 7-36.9 3.5l-5.5-1.8 4.5-1.2c22.1-6.2 32.4-12.2 41.8-24.2 4.8-6.2 5.9-6.5 13.5-3.7zM1036.3 648.5c-13.1 2.9-27 12.7-34.5 24.6-10.5 16.4-11.6 37.5-3.1 55.7 3.7 8 16.7 20.9 25.3 25 7.1 3.5 18 6.2 25 6.2 19.4 0 39.9-12.1 49.2-29 5.3-9.4 6.8-15.8 6.8-27.5 0-16.6-4.7-28.2-16-39.5-14-14.1-33.3-19.7-52.7-15.5zm14.7 7.4c1.5 3 1.2 9.2-.7 11.3-1.1 1.2-3 1.8-6.3 1.8-12.6 0-25.4 5.2-35.7 14.5-3.5 3.1-6.3 5.2-6.3 4.6 0-.7 1.4-3.9 3.1-7.3 3.7-7.3 10.2-14.5 17.2-19 10.7-6.9 26.4-10.1 28.7-5.9zm20 3c6.4 3.1 7.2 4.5 9.6 16 2.4 12.1 1.6 24.7-1.9 30-4.8 7.3-14.9 11.2-20.2 7.7-1.3-.9-3.1-2.9-3.9-4.4-1.3-2.6-1.2-3.1 2.1-8.4 4.6-7.4 5-15.1 1.1-22.6l-2.5-4.9 1.9-3.8c1.6-3 1.9-4.9 1.4-8.8l-.7-4.9 3.8.7c2.1.3 6.3 1.9 9.3 3.4zm22.1 21.8c4.9 9.4 6.6 19.1 5.1 29.5-1.5 10.2-2.4 11.8-6.7 11.8-2.4 0-4.5-.9-7-3.1-4-3.5-4.4-5.8-1.5-8.4 3.5-3.2 5.5-11.1 5.4-22 0-5.5-.3-11.3-.7-12.8-1.4-5.2 1.6-2.5 5.4 5zm-42.3-1.9c3.1 4.3 3.7 9.6 1.7 14.7-1.9 5-1.7 5-9.6 3.3-9.8-2-18.2 2.1-21.9 10.7-1.7 4.1-2 4.2-7.3 4.8-3 .3-6.9 1.3-8.7 2.2-3.9 2-5 1-5-4.8 0-5.2 2.9-10.5 10.2-18.2 9.8-10.5 20-15.4 32-15.5 6.2 0 6.8.2 8.6 2.8zm-6.1 26.4c1.1 1.3 2.8 3.7 3.6 5.4 2.2 4.4 7.9 9 11.9 9.8 1.8.3 5.7 0 8.5-.7l5.2-1.4 3.8 3.9c2.1 2.2 5.9 4.6 8.5 5.6 2.7.9 4.8 2 4.8 2.5s-2.5 3.5-5.7 6.8c-6.3 6.6-7 6.8-18 4.4-17.2-3.6-27.4-8.7-36.2-18-4-4.2-5.1-6.1-5.1-8.7 0-3.8 2.8-8.6 6.2-10.4 3.8-2.2 10.1-1.7 12.5.8zm-23.1 17.9c7.5 10.4 22.7 19.8 37.6 23.4 4 1 7.7 2.1 8.1 2.5.5.4-2.1 1.5-5.7 2.5-8.5 2.3-21.6 1.7-29.8-1.5-10.6-4-24.7-16.6-26.4-23.7-1-4 3.9-7.6 11.4-8.2.6-.1 2.8 2.2 4.8 5zM530.1 1199.5c-3.2 8.4-2.7 11.1 1.5 9.5 4-1.6 6-14.1 2.2-14.8-1.2-.2-2.2 1.2-3.7 5.3zM523.1 1221.4c-1.4 1.6-6.1 14.9-6.1 17.2 0 1 .7 1.4 2.3 1.2 4.4-.6 9.7-15.9 6.4-18.6-1.1-1-1.7-.9-2.6.2zM853.9 1200.6c-1.1 1.4-1 2.9.8 9.8 3.1 11.9 4.8 15.6 7.3 15.6 1.1 0 2.3-.7 2.7-1.6.8-2.2-4.3-21.4-6.4-23.6-2-2.2-2.7-2.2-4.4-.2z"/></svg>